<?xml version="1.0" encoding="UTF-8"?><svg xmlns="http://www.w3.org/2000/svg" xmlns:xlink="http://www.w3.org/1999/xlink" fill-opacity="1" color-rendering="auto" color-interpolation="auto" text-rendering="auto" stroke="black" stroke-linecap="square" width="1618" stroke-miterlimit="10" shape-rendering="auto" stroke-opacity="1" fill="black" stroke-dasharray="none" font-weight="normal" stroke-width="1" height="764" font-family="'Dialog'" font-style="normal" stroke-linejoin="miter" font-size="12px" stroke-dashoffset="0" image-rendering="auto">
  <!--Generated by ySVG 2.6-->
  <defs id="genericDefs"/>
  <g>
    <defs id="defs1">
      <clipPath clipPathUnits="userSpaceOnUse" id="clipPath1">
        <path d="M0 0 L1618 0 L1618 764 L0 764 L0 0 Z"/>
      </clipPath>
      <clipPath clipPathUnits="userSpaceOnUse" id="clipPath2">
        <path d="M1421 603 L2230 603 L2230 985 L1421 985 L1421 603 Z"/>
      </clipPath>
    </defs>
    <g fill="white" text-rendering="geometricPrecision" shape-rendering="geometricPrecision" transform="scale(2,2) translate(-1421,-603)" stroke="white">
      <rect x="1421" width="809" height="382" y="603" clip-path="url(#clipPath2)" stroke="none"/>
    </g>
    <g text-rendering="geometricPrecision" stroke-miterlimit="1.45" shape-rendering="geometricPrecision" transform="matrix(2,0,0,2,-2842,-1206)" stroke-linecap="butt">
      <path fill="none" d="M1573.8275 961.52 L1626.3269 961.52" clip-path="url(#clipPath2)"/>
      <path fill="white" d="M1641.3269 961.52 L1625.3269 955.52 L1625.3269 967.52 Z" clip-path="url(#clipPath2)" stroke="none"/>
      <path fill="none" d="M1641.3269 961.52 L1625.3269 955.52 L1625.3269 967.52 Z" clip-path="url(#clipPath2)"/>
      <text x="1576.5594" xml:space="preserve" y="954.8833" clip-path="url(#clipPath2)" font-family="sans-serif" stroke="none">subClassOf</text>
      <path fill="none" d="M1657.7267 961.52 L1725.8273 961.52" clip-path="url(#clipPath2)"/>
      <path d="M1733.8273 961.52 L1721.8273 956.52 L1724.8273 961.52 L1721.8273 966.52 Z" clip-path="url(#clipPath2)" stroke="none"/>
      <text x="1660.0807" xml:space="preserve" y="954.8833" clip-path="url(#clipPath2)" font-family="sans-serif" stroke="none">otherRelation</text>
      <path fill="none" d="M1697.6816 870 L1710 870 L1710 910 L1826.4823 910" clip-path="url(#clipPath2)"/>
      <path d="M1834.4823 910 L1822.4823 905 L1825.4823 910 L1822.4823 915 Z" clip-path="url(#clipPath2)" stroke="none"/>
      <rect x="1765.6695" y="908" clip-path="url(#clipPath2)" fill="white" width="4" height="4" stroke="none"/>
      <path fill="none" d="M1697.6921 910 L1826.4399 910" clip-path="url(#clipPath2)"/>
      <path d="M1834.4399 910 L1822.4399 905 L1825.4399 910 L1822.4399 915 Z" clip-path="url(#clipPath2)" stroke="none"/>
      <rect x="1735.7163" y="900.6494" clip-path="url(#clipPath2)" fill="white" width="60.6953" height="18.7012" stroke="none"/>
      <text x="1737.7163" xml:space="preserve" y="914.7139" clip-path="url(#clipPath2)" font-family="sans-serif" stroke="none">represents</text>
      <path fill="none" d="M1697.631 790 L1720 790 L1720 870 L1826.443 870" clip-path="url(#clipPath2)"/>
      <path d="M1834.443 870 L1822.443 865 L1825.443 870 L1822.443 875 Z" clip-path="url(#clipPath2)" stroke="none"/>
      <path fill="none" d="M1697.631 830 L1720 830 L1720 870 L1826.443 870" clip-path="url(#clipPath2)"/>
      <path d="M1834.443 870 L1822.443 865 L1825.443 870 L1822.443 875 Z" clip-path="url(#clipPath2)" stroke="none"/>
      <rect x="1742.3218" y="860.6494" clip-path="url(#clipPath2)" fill="white" width="60.6953" height="18.7012" stroke="none"/>
      <text x="1744.3219" xml:space="preserve" y="874.7139" clip-path="url(#clipPath2)" font-family="sans-serif" stroke="none">represents</text>
      <path fill="none" d="M1921.964 899.9609 L1921.964 887.9772" clip-path="url(#clipPath2)"/>
      <path d="M1921.964 879.9772 L1916.964 891.9772 L1921.964 888.9772 L1926.964 891.9772 Z" clip-path="url(#clipPath2)" stroke="none"/>
      <text x="1927.964" xml:space="preserve" y="894.7139" clip-path="url(#clipPath2)" font-family="sans-serif" stroke="none">restrictionOf</text>
      <path fill="none" d="M1454.691 830 L1447.1639 830 L1447.1639 774.9609" clip-path="url(#clipPath2)"/>
      <path fill="white" d="M1447.1639 759.9609 L1441.1639 775.9609 L1453.1639 775.9609 Z" clip-path="url(#clipPath2)" stroke="none"/>
      <path fill="none" d="M1447.1639 759.9609 L1441.1639 775.9609 L1453.1639 775.9609 Z" clip-path="url(#clipPath2)"/>
      <path fill="none" d="M1454.691 790 L1447.1639 790 L1447.1639 774.9609" clip-path="url(#clipPath2)"/>
      <path fill="white" d="M1447.1639 759.9609 L1441.1639 775.9609 L1453.1639 775.9609 Z" clip-path="url(#clipPath2)" stroke="none"/>
      <path fill="none" d="M1447.1639 759.9609 L1441.1639 775.9609 L1453.1639 775.9609 Z" clip-path="url(#clipPath2)"/>
      <path fill="none" d="M1454.691 910 L1447.1639 910 L1447.1639 774.9609" clip-path="url(#clipPath2)"/>
      <path fill="white" d="M1447.1639 759.9609 L1441.1639 775.9609 L1453.1639 775.9609 Z" clip-path="url(#clipPath2)" stroke="none"/>
      <path fill="none" d="M1447.1639 759.9609 L1441.1639 775.9609 L1453.1639 775.9609 Z" clip-path="url(#clipPath2)"/>
      <path fill="none" d="M1454.691 870 L1447.1639 870 L1447.1639 774.9902" clip-path="url(#clipPath2)"/>
      <path fill="white" d="M1447.1639 759.9902 L1441.1639 775.9902 L1453.1639 775.9902 Z" clip-path="url(#clipPath2)" stroke="none"/>
      <path fill="none" d="M1447.1639 759.9902 L1441.1639 775.9902 L1453.1639 775.9902 Z" clip-path="url(#clipPath2)"/>
      <path fill="none" d="M1568.6639 719.9609 L1568.6639 731.9968" clip-path="url(#clipPath2)"/>
      <path d="M1568.6639 739.9968 L1573.6639 727.9968 L1568.6639 730.9968 L1563.6639 727.9968 Z" clip-path="url(#clipPath2)" stroke="none"/>
      <text x="1521.3085" xml:space="preserve" y="734.7139" clip-path="url(#clipPath2)" font-family="sans-serif" stroke="none">hasPart</text>
      <path fill="none" d="M1697.6943 675 L1720.928 675 L1720.928 745 L1705.6943 745" clip-path="url(#clipPath2)"/>
      <path d="M1697.6943 745 L1709.6943 750 L1706.6943 745 L1709.6943 740 Z" clip-path="url(#clipPath2)" stroke="none"/>
      <rect x="1621.1761" y="680.2174" clip-path="url(#clipPath2)" fill="white" width="182.0957" height="18.7012" stroke="none"/>
      <text x="1623.1761" xml:space="preserve" y="694.2819" clip-path="url(#clipPath2)" font-family="sans-serif" stroke="none">hasInclusion/Exclusion/Projection</text>
      <path fill="none" d="M1576.1639 779.9609 L1576.1639 767.9772" clip-path="url(#clipPath2)"/>
      <path d="M1576.1639 759.9772 L1571.1639 771.9772 L1576.1639 768.9772 L1581.1639 771.9772 Z" clip-path="url(#clipPath2)" stroke="none"/>
      <text x="1502.8104" xml:space="preserve" y="774.7139" clip-path="url(#clipPath2)" font-family="sans-serif" stroke="none">derivedFrom</text>
      <path fill="none" d="M1849.4323 710 L1841.964 710 L1841.964 694.9609" clip-path="url(#clipPath2)"/>
      <path fill="white" d="M1841.964 679.9609 L1835.964 695.9609 L1847.964 695.9609 Z" clip-path="url(#clipPath2)" stroke="none"/>
      <path fill="none" d="M1841.964 679.9609 L1835.964 695.9609 L1847.964 695.9609 Z" clip-path="url(#clipPath2)"/>
      <path fill="none" d="M1849.4323 750 L1841.964 750 L1841.964 694.9609" clip-path="url(#clipPath2)"/>
      <path fill="white" d="M1841.964 679.9609 L1835.964 695.9609 L1847.964 695.9609 Z" clip-path="url(#clipPath2)" stroke="none"/>
      <path fill="none" d="M1841.964 679.9609 L1835.964 695.9609 L1847.964 695.9609 Z" clip-path="url(#clipPath2)"/>
      <path fill="none" d="M2096.4976 670 L2032.4399 670" clip-path="url(#clipPath2)"/>
      <path d="M2024.4399 670 L2036.4399 675 L2033.4399 670 L2036.4399 665 Z" clip-path="url(#clipPath2)" stroke="none"/>
      <text x="2029.8073" xml:space="preserve" y="663.3633" clip-path="url(#clipPath2)" font-family="sans-serif" stroke="none">implements</text>
      <path fill="none" d="M1568.6639 679.9609 L1568.6639 691.9968" clip-path="url(#clipPath2)"/>
      <path d="M1568.6639 699.9968 L1573.6639 687.9968 L1568.6639 690.9968 L1563.6639 687.9968 Z" clip-path="url(#clipPath2)" stroke="none"/>
      <text x="1513.9608" xml:space="preserve" y="694.7139" clip-path="url(#clipPath2)" font-family="sans-serif" stroke="none">basedOn</text>
      <path fill="none" d="M1834.4633 665 L1705.6377 665" clip-path="url(#clipPath2)"/>
      <path d="M1697.6377 665 L1709.6377 670 L1706.6377 665 L1709.6377 660 Z" clip-path="url(#clipPath2)" stroke="none"/>
      <text x="1730.0435" xml:space="preserve" y="658.3633" clip-path="url(#clipPath2)" font-family="sans-serif" stroke="none">applicableFor</text>
      <path fill="none" d="M1929.464 659.9824 L1929.464 654.9883" clip-path="url(#clipPath2)"/>
      <path fill="white" d="M1929.464 639.9883 L1923.464 655.9883 L1935.464 655.9883 Z" clip-path="url(#clipPath2)" stroke="none"/>
      <path fill="none" d="M1929.464 639.9883 L1923.464 655.9883 L1935.464 655.9883 Z" clip-path="url(#clipPath2)"/>
      <path fill="none" d="M2161.5039 659.9824 L2161.5039 654.9883" clip-path="url(#clipPath2)"/>
      <path fill="white" d="M2161.5039 639.9883 L2155.5039 655.9883 L2167.5039 655.9883 Z" clip-path="url(#clipPath2)" stroke="none"/>
      <path fill="none" d="M2161.5039 639.9883 L2155.5039 655.9883 L2167.5039 655.9883 Z" clip-path="url(#clipPath2)"/>
      <path fill="none" d="M1697.6564 755 L1776.964 755 L1776.964 800.0078" clip-path="url(#clipPath2)"/>
      <path d="M1776.964 808.0078 L1781.964 796.0078 L1776.964 799.0078 L1771.964 796.0078 Z" clip-path="url(#clipPath2)" stroke="none"/>
      <rect x="1719.1988" y="745.6494" clip-path="url(#clipPath2)" fill="white" width="45.3555" height="18.7012" stroke="none"/>
      <text x="1721.1987" xml:space="preserve" y="759.7139" clip-path="url(#clipPath2)" font-family="sans-serif" stroke="none">hasPart</text>
      <path fill="none" d="M1439.6621 750 L1432.1639 750 L1432.1639 655.0269" clip-path="url(#clipPath2)"/>
      <path fill="white" d="M1432.1639 640.0269 L1426.1639 656.0269 L1438.1639 656.0269 Z" clip-path="url(#clipPath2)" stroke="none"/>
      <path fill="none" d="M1432.1639 640.0269 L1426.1639 656.0269 L1438.1639 656.0269 Z" clip-path="url(#clipPath2)"/>
      <path fill="none" d="M1439.6621 710 L1432.1639 710 L1432.1639 654.999" clip-path="url(#clipPath2)"/>
      <path fill="white" d="M1432.1639 639.999 L1426.1639 655.999 L1438.1639 655.999 Z" clip-path="url(#clipPath2)" stroke="none"/>
      <path fill="none" d="M1432.1639 639.999 L1426.1639 655.999 L1438.1639 655.999 Z" clip-path="url(#clipPath2)"/>
      <path fill="none" d="M1439.6621 670 L1432.1639 670 L1432.1639 655.0371" clip-path="url(#clipPath2)"/>
      <path fill="white" d="M1432.1639 640.0371 L1426.1639 656.0371 L1438.1639 656.0371 Z" clip-path="url(#clipPath2)" stroke="none"/>
      <path fill="none" d="M1432.1639 640.0371 L1426.1639 656.0371 L1438.1639 656.0371 Z" clip-path="url(#clipPath2)"/>
      <path fill="none" d="M2009.4852 910 L2016.964 910 L2016.964 854.999" clip-path="url(#clipPath2)"/>
      <path fill="white" d="M2016.964 839.999 L2010.964 855.999 L2022.964 855.999 Z" clip-path="url(#clipPath2)" stroke="none"/>
      <path fill="none" d="M2016.964 839.999 L2010.964 855.999 L2022.964 855.999 Z" clip-path="url(#clipPath2)"/>
      <path fill="none" d="M2009.4852 870 L2016.964 870 L2016.964 855.0371" clip-path="url(#clipPath2)"/>
      <path fill="white" d="M2016.964 840.0371 L2010.964 856.0371 L2022.964 856.0371 Z" clip-path="url(#clipPath2)" stroke="none"/>
      <path fill="none" d="M2016.964 840.0371 L2010.964 856.0371 L2022.964 856.0371 Z" clip-path="url(#clipPath2)"/>
      <path fill="none" d="M2096.4578 904 L2060.2 904 L2060.2 824 L2032.4838 824" clip-path="url(#clipPath2)"/>
      <path d="M2024.4838 824 L2036.4838 829 L2033.4838 824 L2036.4838 819 Z" clip-path="url(#clipPath2)" stroke="none"/>
      <rect x="2029.5184" y="854.6494" clip-path="url(#clipPath2)" fill="white" width="61.3633" height="18.7012" stroke="none"/>
      <text x="2031.5183" xml:space="preserve" y="868.7139" clip-path="url(#clipPath2)" font-family="sans-serif" stroke="none">instanceOf</text>
      <path fill="none" d="M2161.5039 680.0088 L2161.5039 719.9709" clip-path="url(#clipPath2)"/>
      <path d="M2161.5039 727.9709 L2166.5039 715.9709 L2161.5039 718.9709 L2156.5039 715.9709 Z" clip-path="url(#clipPath2)" stroke="none"/>
      <rect x="2138.8292" y="690.125" clip-path="url(#clipPath2)" fill="white" width="45.3496" height="18.7012" stroke="none"/>
      <text x="2140.8291" xml:space="preserve" y="704.1895" clip-path="url(#clipPath2)" font-family="sans-serif" stroke="none">realises</text>
      <path fill="none" d="M2161.5039 880.0234 L2161.5039 839.9746" clip-path="url(#clipPath2)"/>
      <path d="M2161.5039 888.0234 L2166.5039 876.0234 L2161.5039 879.0234 L2156.5039 876.0234 Z" clip-path="url(#clipPath2)" stroke="none"/>
      <rect x="2123.1524" y="850.125" clip-path="url(#clipPath2)" fill="white" width="76.7031" height="18.7012" stroke="none"/>
      <text x="2125.1523" xml:space="preserve" y="864.1895" clip-path="url(#clipPath2)" font-family="sans-serif" stroke="none">hasAttributive</text>
      <path fill="none" d="M2161.5039 759.9766 L2161.5039 800.0254" clip-path="url(#clipPath2)"/>
      <path d="M2161.5039 808.0254 L2166.5039 796.0254 L2161.5039 799.0254 L2156.5039 796.0254 Z" clip-path="url(#clipPath2)" stroke="none"/>
      <rect x="2135.8233" y="770.125" clip-path="url(#clipPath2)" fill="white" width="51.3613" height="18.7012" stroke="none"/>
      <text x="2137.8232" xml:space="preserve" y="784.1895" clip-path="url(#clipPath2)" font-family="sans-serif" stroke="none">identifies</text>
      <rect x="1424.664" y="933.84" clip-path="url(#clipPath2)" fill="none" width="316.22" stroke-dasharray="6,2" height="47.56"/>
    </g>
    <g fill="white" text-rendering="geometricPrecision" shape-rendering="geometricPrecision" transform="matrix(2,0,0,2,-2842,-1206)" stroke="white">
      <rect x="1430.424" y="940" clip-path="url(#clipPath2)" width="130.2" rx="4" ry="4" height="35" stroke="none"/>
    </g>
    <g stroke-linecap="butt" transform="matrix(2,0,0,2,-2842,-1206)" text-rendering="geometricPrecision" font-family="sans-serif" shape-rendering="geometricPrecision" font-weight="bold" stroke-miterlimit="1.45">
      <text x="1465.8405" xml:space="preserve" y="970.3633" clip-path="url(#clipPath2)" stroke="none">COP class</text>
    </g>
    <g stroke-linecap="butt" transform="matrix(2,0,0,2,-2842,-1206)" fill="rgb(150,150,150)" text-rendering="geometricPrecision" shape-rendering="geometricPrecision" stroke="rgb(150,150,150)" stroke-miterlimit="1.45">
      <rect x="1430.424" y="940" clip-path="url(#clipPath2)" fill="none" width="130.2" rx="4" ry="4" height="35"/>
      <rect stroke-linecap="square" x="1430.424" y="940" clip-path="url(#clipPath2)" width="130.2" rx="4" ry="4" height="15" stroke="none" stroke-miterlimit="10"/>
    </g>
    <g stroke-linecap="butt" transform="matrix(2,0,0,2,-2842,-1206)" fill="white" text-rendering="geometricPrecision" font-family="sans-serif" shape-rendering="geometricPrecision" stroke="white" font-weight="bold" stroke-miterlimit="1.45">
      <text x="1434.8444" xml:space="preserve" y="952.2139" clip-path="url(#clipPath2)" stroke="none">GFO-light superclass</text>
    </g>
    <g stroke-linecap="butt" transform="matrix(2,0,0,2,-2842,-1206)" fill="rgb(150,150,150)" text-rendering="geometricPrecision" shape-rendering="geometricPrecision" stroke="rgb(150,150,150)" stroke-miterlimit="1.45">
      <rect x="1430.424" y="940" clip-path="url(#clipPath2)" fill="none" width="130.2" rx="4" ry="4" height="15"/>
    </g>
    <g fill="white" text-rendering="geometricPrecision" shape-rendering="geometricPrecision" transform="matrix(2,0,0,2,-2842,-1206)" stroke="white">
      <rect x="1834.464" y="900" clip-path="url(#clipPath2)" width="175" rx="4" ry="4" height="20" stroke="none"/>
    </g>
    <g stroke-linecap="butt" transform="matrix(2,0,0,2,-2842,-1206)" text-rendering="geometricPrecision" font-family="sans-serif" shape-rendering="geometricPrecision" font-weight="bold" stroke-miterlimit="1.45">
      <text x="1845.9386" xml:space="preserve" y="914.7139" clip-path="url(#clipPath2)" stroke="none">RestrictedPhenotypeClass</text>
    </g>
    <g stroke-linecap="butt" transform="matrix(2,0,0,2,-2842,-1206)" fill="rgb(150,150,150)" text-rendering="geometricPrecision" shape-rendering="geometricPrecision" stroke="rgb(150,150,150)" stroke-miterlimit="1.45">
      <rect x="1834.464" y="900" clip-path="url(#clipPath2)" fill="none" width="175" rx="4" ry="4" height="20"/>
    </g>
    <g fill="white" text-rendering="geometricPrecision" shape-rendering="geometricPrecision" transform="matrix(2,0,0,2,-2842,-1206)" stroke="white">
      <rect x="1834.464" y="860" clip-path="url(#clipPath2)" width="175" rx="4" ry="4" height="20" stroke="none"/>
    </g>
    <g stroke-linecap="butt" transform="matrix(2,0,0,2,-2842,-1206)" text-rendering="geometricPrecision" font-family="sans-serif" shape-rendering="geometricPrecision" font-weight="bold" stroke-miterlimit="1.45">
      <text x="1839.9386" xml:space="preserve" y="874.7139" clip-path="url(#clipPath2)" stroke="none">UnrestrictedPhenotypeClass</text>
    </g>
    <g stroke-linecap="butt" transform="matrix(2,0,0,2,-2842,-1206)" fill="rgb(150,150,150)" text-rendering="geometricPrecision" shape-rendering="geometricPrecision" stroke="rgb(150,150,150)" stroke-miterlimit="1.45">
      <rect x="1834.464" y="860" clip-path="url(#clipPath2)" fill="none" width="175" rx="4" ry="4" height="20"/>
    </g>
    <g fill="white" text-rendering="geometricPrecision" shape-rendering="geometricPrecision" transform="matrix(2,0,0,2,-2842,-1206)" stroke="white">
      <rect x="1439.664" y="740" clip-path="url(#clipPath2)" width="258" rx="4" ry="4" height="20" stroke="none"/>
    </g>
    <g stroke-linecap="butt" transform="matrix(2,0,0,2,-2842,-1206)" text-rendering="geometricPrecision" font-family="sans-serif" shape-rendering="geometricPrecision" font-weight="bold" stroke-miterlimit="1.45">
      <text x="1508.3094" xml:space="preserve" y="754.7139" clip-path="url(#clipPath2)" stroke="none">PhenotypeClassView</text>
    </g>
    <g stroke-linecap="butt" transform="matrix(2,0,0,2,-2842,-1206)" fill="rgb(150,150,150)" text-rendering="geometricPrecision" shape-rendering="geometricPrecision" stroke="rgb(150,150,150)" stroke-miterlimit="1.45">
      <rect x="1439.664" y="740" clip-path="url(#clipPath2)" fill="none" width="258" rx="4" ry="4" height="20"/>
    </g>
    <g fill="white" text-rendering="geometricPrecision" shape-rendering="geometricPrecision" transform="matrix(2,0,0,2,-2842,-1206)" stroke="white">
      <rect x="1454.664" y="820" clip-path="url(#clipPath2)" width="243" rx="4" ry="4" height="20" stroke="none"/>
    </g>
    <g stroke-linecap="butt" transform="matrix(2,0,0,2,-2842,-1206)" text-rendering="geometricPrecision" font-family="sans-serif" shape-rendering="geometricPrecision" font-weight="bold" stroke-miterlimit="1.45">
      <text x="1464.455" xml:space="preserve" y="834.7139" clip-path="url(#clipPath2)" stroke="none">BasicUnrestrictedPhenotypeClassView</text>
    </g>
    <g stroke-linecap="butt" transform="matrix(2,0,0,2,-2842,-1206)" fill="rgb(150,150,150)" text-rendering="geometricPrecision" shape-rendering="geometricPrecision" stroke="rgb(150,150,150)" stroke-miterlimit="1.45">
      <rect x="1454.664" y="820" clip-path="url(#clipPath2)" fill="none" width="243" rx="4" ry="4" height="20"/>
    </g>
    <g fill="white" text-rendering="geometricPrecision" shape-rendering="geometricPrecision" transform="matrix(2,0,0,2,-2842,-1206)" stroke="white">
      <rect x="1454.664" y="780" clip-path="url(#clipPath2)" width="243" rx="4" ry="4" height="20" stroke="none"/>
    </g>
    <g stroke-linecap="butt" transform="matrix(2,0,0,2,-2842,-1206)" text-rendering="geometricPrecision" font-family="sans-serif" shape-rendering="geometricPrecision" font-weight="bold" stroke-miterlimit="1.45">
      <text x="1458.455" xml:space="preserve" y="794.7139" clip-path="url(#clipPath2)" stroke="none">DerivedUnrestrictedPhenotypeClassView</text>
    </g>
    <g stroke-linecap="butt" transform="matrix(2,0,0,2,-2842,-1206)" fill="rgb(150,150,150)" text-rendering="geometricPrecision" shape-rendering="geometricPrecision" stroke="rgb(150,150,150)" stroke-miterlimit="1.45">
      <rect x="1454.664" y="780" clip-path="url(#clipPath2)" fill="none" width="243" rx="4" ry="4" height="20"/>
    </g>
    <g fill="white" text-rendering="geometricPrecision" shape-rendering="geometricPrecision" transform="matrix(2,0,0,2,-2842,-1206)" stroke="white">
      <rect x="1454.664" y="900" clip-path="url(#clipPath2)" width="243" rx="4" ry="4" height="20" stroke="none"/>
    </g>
    <g stroke-linecap="butt" transform="matrix(2,0,0,2,-2842,-1206)" text-rendering="geometricPrecision" font-family="sans-serif" shape-rendering="geometricPrecision" font-weight="bold" stroke-miterlimit="1.45">
      <text x="1470.455" xml:space="preserve" y="914.7139" clip-path="url(#clipPath2)" stroke="none">BasicRestrictedPhenotypeClassView</text>
    </g>
    <g stroke-linecap="butt" transform="matrix(2,0,0,2,-2842,-1206)" fill="rgb(150,150,150)" text-rendering="geometricPrecision" shape-rendering="geometricPrecision" stroke="rgb(150,150,150)" stroke-miterlimit="1.45">
      <rect x="1454.664" y="900" clip-path="url(#clipPath2)" fill="none" width="243" rx="4" ry="4" height="20"/>
    </g>
    <g fill="white" text-rendering="geometricPrecision" shape-rendering="geometricPrecision" transform="matrix(2,0,0,2,-2842,-1206)" stroke="white">
      <rect x="1454.664" y="860" clip-path="url(#clipPath2)" width="243" rx="4" ry="4" height="20" stroke="none"/>
    </g>
    <g stroke-linecap="butt" transform="matrix(2,0,0,2,-2842,-1206)" text-rendering="geometricPrecision" font-family="sans-serif" shape-rendering="geometricPrecision" font-weight="bold" stroke-miterlimit="1.45">
      <text x="1464.455" xml:space="preserve" y="874.7139" clip-path="url(#clipPath2)" stroke="none">DerivedRestrictedPhenotypeClassView</text>
    </g>
    <g stroke-linecap="butt" transform="matrix(2,0,0,2,-2842,-1206)" fill="rgb(150,150,150)" text-rendering="geometricPrecision" shape-rendering="geometricPrecision" stroke="rgb(150,150,150)" stroke-miterlimit="1.45">
      <rect x="1454.664" y="860" clip-path="url(#clipPath2)" fill="none" width="243" rx="4" ry="4" height="20"/>
    </g>
    <g fill="white" text-rendering="geometricPrecision" shape-rendering="geometricPrecision" transform="matrix(2,0,0,2,-2842,-1206)" stroke="white">
      <rect x="2096.504" y="660" clip-path="url(#clipPath2)" width="130" rx="4" ry="4" height="20" stroke="none"/>
    </g>
    <g stroke-linecap="butt" transform="matrix(2,0,0,2,-2842,-1206)" text-rendering="geometricPrecision" font-family="sans-serif" shape-rendering="geometricPrecision" font-weight="bold" stroke-miterlimit="1.45">
      <text x="2099.834" xml:space="preserve" y="674.7139" clip-path="url(#clipPath2)" stroke="none">PhenotypingSoftware</text>
    </g>
    <g stroke-linecap="butt" transform="matrix(2,0,0,2,-2842,-1206)" fill="rgb(150,150,150)" text-rendering="geometricPrecision" shape-rendering="geometricPrecision" stroke="rgb(150,150,150)" stroke-miterlimit="1.45">
      <rect x="2096.504" y="660" clip-path="url(#clipPath2)" fill="none" width="130" rx="4" ry="4" height="20"/>
    </g>
    <g fill="white" text-rendering="geometricPrecision" shape-rendering="geometricPrecision" transform="matrix(2,0,0,2,-2842,-1206)" stroke="white">
      <rect x="1834.464" y="660" clip-path="url(#clipPath2)" width="190" rx="4" ry="4" height="20" stroke="none"/>
    </g>
    <g stroke-linecap="butt" transform="matrix(2,0,0,2,-2842,-1206)" text-rendering="geometricPrecision" font-family="sans-serif" shape-rendering="geometricPrecision" font-weight="bold" stroke-miterlimit="1.45">
      <text x="1870.463" xml:space="preserve" y="674.7139" clip-path="url(#clipPath2)" stroke="none">PhenotypeAlgorithm</text>
    </g>
    <g stroke-linecap="butt" transform="matrix(2,0,0,2,-2842,-1206)" fill="rgb(150,150,150)" text-rendering="geometricPrecision" shape-rendering="geometricPrecision" stroke="rgb(150,150,150)" stroke-miterlimit="1.45">
      <rect x="1834.464" y="660" clip-path="url(#clipPath2)" fill="none" width="190" rx="4" ry="4" height="20"/>
    </g>
    <g fill="white" text-rendering="geometricPrecision" shape-rendering="geometricPrecision" transform="matrix(2,0,0,2,-2842,-1206)" stroke="white">
      <rect x="1849.464" y="740" clip-path="url(#clipPath2)" width="175" rx="4" ry="4" height="20" stroke="none"/>
    </g>
    <g stroke-linecap="butt" transform="matrix(2,0,0,2,-2842,-1206)" text-rendering="geometricPrecision" font-family="sans-serif" shape-rendering="geometricPrecision" font-weight="bold" stroke-miterlimit="1.45">
      <text x="1861.6241" xml:space="preserve" y="754.7139" clip-path="url(#clipPath2)" stroke="none">StaticPhenotypeAlgorithm</text>
    </g>
    <g stroke-linecap="butt" transform="matrix(2,0,0,2,-2842,-1206)" fill="rgb(150,150,150)" text-rendering="geometricPrecision" shape-rendering="geometricPrecision" stroke="rgb(150,150,150)" stroke-miterlimit="1.45">
      <rect x="1849.464" y="740" clip-path="url(#clipPath2)" fill="none" width="175" rx="4" ry="4" height="20"/>
    </g>
    <g fill="white" text-rendering="geometricPrecision" shape-rendering="geometricPrecision" transform="matrix(2,0,0,2,-2842,-1206)" stroke="white">
      <rect x="1849.464" y="700" clip-path="url(#clipPath2)" width="175" rx="4" ry="4" height="20" stroke="none"/>
    </g>
    <g stroke-linecap="butt" transform="matrix(2,0,0,2,-2842,-1206)" text-rendering="geometricPrecision" font-family="sans-serif" shape-rendering="geometricPrecision" font-weight="bold" stroke-miterlimit="1.45">
      <text x="1852.9523" xml:space="preserve" y="714.7139" clip-path="url(#clipPath2)" stroke="none">DynamicPhenotypeAlgorithm</text>
    </g>
    <g stroke-linecap="butt" transform="matrix(2,0,0,2,-2842,-1206)" fill="rgb(150,150,150)" text-rendering="geometricPrecision" shape-rendering="geometricPrecision" stroke="rgb(150,150,150)" stroke-miterlimit="1.45">
      <rect x="1849.464" y="700" clip-path="url(#clipPath2)" fill="none" width="175" rx="4" ry="4" height="20"/>
    </g>
    <g fill="white" text-rendering="geometricPrecision" shape-rendering="geometricPrecision" transform="matrix(2,0,0,2,-2842,-1206)" stroke="white">
      <rect x="1439.664" y="700" clip-path="url(#clipPath2)" width="258" rx="4" ry="4" height="20" stroke="none"/>
    </g>
    <g stroke-linecap="butt" transform="matrix(2,0,0,2,-2842,-1206)" text-rendering="geometricPrecision" font-family="sans-serif" shape-rendering="geometricPrecision" font-weight="bold" stroke-miterlimit="1.45">
      <text x="1520.661" xml:space="preserve" y="714.7139" clip-path="url(#clipPath2)" stroke="none">PhenotypeModel</text>
    </g>
    <g stroke-linecap="butt" transform="matrix(2,0,0,2,-2842,-1206)" fill="rgb(150,150,150)" text-rendering="geometricPrecision" shape-rendering="geometricPrecision" stroke="rgb(150,150,150)" stroke-miterlimit="1.45">
      <rect x="1439.664" y="700" clip-path="url(#clipPath2)" fill="none" width="258" rx="4" ry="4" height="20"/>
    </g>
    <g fill="white" text-rendering="geometricPrecision" shape-rendering="geometricPrecision" transform="matrix(2,0,0,2,-2842,-1206)" stroke="white">
      <rect x="1439.664" y="660" clip-path="url(#clipPath2)" width="258" rx="4" ry="4" height="20" stroke="none"/>
    </g>
    <g stroke-linecap="butt" transform="matrix(2,0,0,2,-2842,-1206)" text-rendering="geometricPrecision" font-family="sans-serif" shape-rendering="geometricPrecision" font-weight="bold" stroke-miterlimit="1.45">
      <text x="1520.6522" xml:space="preserve" y="674.7139" clip-path="url(#clipPath2)" stroke="none">PhenotypeQuery</text>
    </g>
    <g stroke-linecap="butt" transform="matrix(2,0,0,2,-2842,-1206)" fill="rgb(150,150,150)" text-rendering="geometricPrecision" shape-rendering="geometricPrecision" stroke="rgb(150,150,150)" stroke-miterlimit="1.45">
      <rect x="1439.664" y="660" clip-path="url(#clipPath2)" fill="none" width="258" rx="4" ry="4" height="20"/>
    </g>
    <g fill="white" text-rendering="geometricPrecision" shape-rendering="geometricPrecision" transform="matrix(2,0,0,2,-2842,-1206)" stroke="white">
      <rect x="1834.464" y="608" clip-path="url(#clipPath2)" width="190" rx="4" ry="4" height="32" stroke="none"/>
    </g>
    <g stroke-linecap="butt" transform="matrix(2,0,0,2,-2842,-1206)" text-rendering="geometricPrecision" font-family="sans-serif" shape-rendering="geometricPrecision" font-weight="bold" stroke-miterlimit="1.45">
      <text x="1901.1339" xml:space="preserve" y="635.3633" clip-path="url(#clipPath2)" stroke="none">Algorithm</text>
    </g>
    <g stroke-linecap="butt" transform="matrix(2,0,0,2,-2842,-1206)" fill="rgb(150,150,150)" text-rendering="geometricPrecision" shape-rendering="geometricPrecision" stroke="rgb(150,150,150)" stroke-miterlimit="1.45">
      <rect x="1834.464" y="608" clip-path="url(#clipPath2)" fill="none" width="190" rx="4" ry="4" height="32"/>
      <rect stroke-linecap="square" x="1834.464" y="608" clip-path="url(#clipPath2)" width="190" rx="4" ry="4" height="15" stroke="none" stroke-miterlimit="10"/>
    </g>
    <g stroke-linecap="butt" transform="matrix(2,0,0,2,-2842,-1206)" fill="white" text-rendering="geometricPrecision" font-family="sans-serif" shape-rendering="geometricPrecision" stroke="white" font-weight="bold" stroke-miterlimit="1.45">
      <text x="1911.795" xml:space="preserve" y="620.2139" clip-path="url(#clipPath2)" stroke="none">Token</text>
    </g>
    <g stroke-linecap="butt" transform="matrix(2,0,0,2,-2842,-1206)" fill="rgb(150,150,150)" text-rendering="geometricPrecision" shape-rendering="geometricPrecision" stroke="rgb(150,150,150)" stroke-miterlimit="1.45">
      <rect x="1834.464" y="608" clip-path="url(#clipPath2)" fill="none" width="190" rx="4" ry="4" height="15"/>
    </g>
    <g fill="white" text-rendering="geometricPrecision" shape-rendering="geometricPrecision" transform="matrix(2,0,0,2,-2842,-1206)" stroke="white">
      <rect x="2096.504" y="608" clip-path="url(#clipPath2)" width="130" rx="4" ry="4" height="32" stroke="none"/>
    </g>
    <g stroke-linecap="butt" transform="matrix(2,0,0,2,-2842,-1206)" text-rendering="geometricPrecision" font-family="sans-serif" shape-rendering="geometricPrecision" font-weight="bold" stroke-miterlimit="1.45">
      <text x="2136.165" xml:space="preserve" y="635.3633" clip-path="url(#clipPath2)" stroke="none">Software</text>
    </g>
    <g stroke-linecap="butt" transform="matrix(2,0,0,2,-2842,-1206)" fill="rgb(150,150,150)" text-rendering="geometricPrecision" shape-rendering="geometricPrecision" stroke="rgb(150,150,150)" stroke-miterlimit="1.45">
      <rect x="2096.504" y="608" clip-path="url(#clipPath2)" fill="none" width="130" rx="4" ry="4" height="32"/>
      <rect stroke-linecap="square" x="2096.504" y="608" clip-path="url(#clipPath2)" width="130" rx="4" ry="4" height="15" stroke="none" stroke-miterlimit="10"/>
    </g>
    <g stroke-linecap="butt" transform="matrix(2,0,0,2,-2842,-1206)" fill="white" text-rendering="geometricPrecision" font-family="sans-serif" shape-rendering="geometricPrecision" stroke="white" font-weight="bold" stroke-miterlimit="1.45">
      <text x="2143.835" xml:space="preserve" y="620.2139" clip-path="url(#clipPath2)" stroke="none">Token</text>
    </g>
    <g stroke-linecap="butt" transform="matrix(2,0,0,2,-2842,-1206)" fill="rgb(150,150,150)" text-rendering="geometricPrecision" shape-rendering="geometricPrecision" stroke="rgb(150,150,150)" stroke-miterlimit="1.45">
      <rect x="2096.504" y="608" clip-path="url(#clipPath2)" fill="none" width="130" rx="4" ry="4" height="15"/>
    </g>
    <g fill="white" text-rendering="geometricPrecision" shape-rendering="geometricPrecision" transform="matrix(2,0,0,2,-2842,-1206)" stroke="white">
      <rect x="1734.464" y="808" clip-path="url(#clipPath2)" width="85" rx="4" ry="4" height="32" stroke="none"/>
    </g>
    <g stroke-linecap="butt" transform="matrix(2,0,0,2,-2842,-1206)" text-rendering="geometricPrecision" font-family="sans-serif" shape-rendering="geometricPrecision" font-weight="bold" stroke-miterlimit="1.45">
      <text x="1737.6271" xml:space="preserve" y="835.3633" clip-path="url(#clipPath2)" stroke="none">AttributeSpec</text>
    </g>
    <g stroke-linecap="butt" transform="matrix(2,0,0,2,-2842,-1206)" fill="rgb(150,150,150)" text-rendering="geometricPrecision" shape-rendering="geometricPrecision" stroke="rgb(150,150,150)" stroke-miterlimit="1.45">
      <rect x="1734.464" y="808" clip-path="url(#clipPath2)" fill="none" width="85" rx="4" ry="4" height="32"/>
      <rect stroke-linecap="square" x="1734.464" y="808" clip-path="url(#clipPath2)" width="85" rx="4" ry="4" height="15" stroke="none" stroke-miterlimit="10"/>
    </g>
    <g stroke-linecap="butt" transform="matrix(2,0,0,2,-2842,-1206)" fill="white" text-rendering="geometricPrecision" font-family="sans-serif" shape-rendering="geometricPrecision" stroke="white" font-weight="bold" stroke-miterlimit="1.45">
      <text x="1759.295" xml:space="preserve" y="820.2139" clip-path="url(#clipPath2)" stroke="none">Token</text>
    </g>
    <g stroke-linecap="butt" transform="matrix(2,0,0,2,-2842,-1206)" fill="rgb(150,150,150)" text-rendering="geometricPrecision" shape-rendering="geometricPrecision" stroke="rgb(150,150,150)" stroke-miterlimit="1.45">
      <rect x="1734.464" y="808" clip-path="url(#clipPath2)" fill="none" width="85" rx="4" ry="4" height="15"/>
    </g>
    <g fill="white" text-rendering="geometricPrecision" shape-rendering="geometricPrecision" transform="matrix(2,0,0,2,-2842,-1206)" stroke="white">
      <rect x="1424.664" y="608" clip-path="url(#clipPath2)" width="273" rx="4" ry="4" height="32" stroke="none"/>
    </g>
    <g stroke-linecap="butt" transform="matrix(2,0,0,2,-2842,-1206)" text-rendering="geometricPrecision" font-family="sans-serif" shape-rendering="geometricPrecision" font-weight="bold" stroke-miterlimit="1.45">
      <text x="1543.8319" xml:space="preserve" y="635.3633" clip-path="url(#clipPath2)" stroke="none">Model</text>
    </g>
    <g stroke-linecap="butt" transform="matrix(2,0,0,2,-2842,-1206)" fill="rgb(150,150,150)" text-rendering="geometricPrecision" shape-rendering="geometricPrecision" stroke="rgb(150,150,150)" stroke-miterlimit="1.45">
      <rect x="1424.664" y="608" clip-path="url(#clipPath2)" fill="none" width="273" rx="4" ry="4" height="32"/>
      <rect stroke-linecap="square" x="1424.664" y="608" clip-path="url(#clipPath2)" width="273" rx="4" ry="4" height="15" stroke="none" stroke-miterlimit="10"/>
    </g>
    <g stroke-linecap="butt" transform="matrix(2,0,0,2,-2842,-1206)" fill="white" text-rendering="geometricPrecision" font-family="sans-serif" shape-rendering="geometricPrecision" stroke="white" font-weight="bold" stroke-miterlimit="1.45">
      <text x="1543.495" xml:space="preserve" y="620.2139" clip-path="url(#clipPath2)" stroke="none">Token</text>
    </g>
    <g stroke-linecap="butt" transform="matrix(2,0,0,2,-2842,-1206)" fill="rgb(150,150,150)" text-rendering="geometricPrecision" shape-rendering="geometricPrecision" stroke="rgb(150,150,150)" stroke-miterlimit="1.45">
      <rect x="1424.664" y="608" clip-path="url(#clipPath2)" fill="none" width="273" rx="4" ry="4" height="15"/>
    </g>
    <g fill="white" text-rendering="geometricPrecision" shape-rendering="geometricPrecision" transform="matrix(2,0,0,2,-2842,-1206)" stroke="white">
      <rect x="1834.464" y="808" clip-path="url(#clipPath2)" width="190" rx="4" ry="4" height="32" stroke="none"/>
    </g>
    <g stroke-linecap="butt" transform="matrix(2,0,0,2,-2842,-1206)" text-rendering="geometricPrecision" font-family="sans-serif" shape-rendering="geometricPrecision" font-weight="bold" stroke-miterlimit="1.45">
      <text x="1882.7823" xml:space="preserve" y="835.3633" clip-path="url(#clipPath2)" stroke="none">PhenotypeClass</text>
    </g>
    <g stroke-linecap="butt" transform="matrix(2,0,0,2,-2842,-1206)" fill="rgb(150,150,150)" text-rendering="geometricPrecision" shape-rendering="geometricPrecision" stroke="rgb(150,150,150)" stroke-miterlimit="1.45">
      <rect x="1834.464" y="808" clip-path="url(#clipPath2)" fill="none" width="190" rx="4" ry="4" height="32"/>
      <rect stroke-linecap="square" x="1834.464" y="808" clip-path="url(#clipPath2)" width="190" rx="4" ry="4" height="15" stroke="none" stroke-miterlimit="10"/>
    </g>
    <g stroke-linecap="butt" transform="matrix(2,0,0,2,-2842,-1206)" fill="white" text-rendering="geometricPrecision" font-family="sans-serif" shape-rendering="geometricPrecision" stroke="white" font-weight="bold" stroke-miterlimit="1.45">
      <text x="1903.4572" xml:space="preserve" y="820.2139" clip-path="url(#clipPath2)" stroke="none">Category</text>
    </g>
    <g stroke-linecap="butt" transform="matrix(2,0,0,2,-2842,-1206)" fill="rgb(150,150,150)" text-rendering="geometricPrecision" shape-rendering="geometricPrecision" stroke="rgb(150,150,150)" stroke-miterlimit="1.45">
      <rect x="1834.464" y="808" clip-path="url(#clipPath2)" fill="none" width="190" rx="4" ry="4" height="15"/>
    </g>
    <g fill="white" text-rendering="geometricPrecision" shape-rendering="geometricPrecision" transform="matrix(2,0,0,2,-2842,-1206)" stroke="white">
      <rect x="2096.504" y="728" clip-path="url(#clipPath2)" width="130" rx="4" ry="4" height="32" stroke="none"/>
    </g>
    <g stroke-linecap="butt" transform="matrix(2,0,0,2,-2842,-1206)" text-rendering="geometricPrecision" font-family="sans-serif" shape-rendering="geometricPrecision" font-weight="bold" stroke-miterlimit="1.45">
      <text x="2125.1729" xml:space="preserve" y="755.3633" clip-path="url(#clipPath2)" stroke="none">Phenotyping</text>
    </g>
    <g stroke-linecap="butt" transform="matrix(2,0,0,2,-2842,-1206)" fill="rgb(150,150,150)" text-rendering="geometricPrecision" shape-rendering="geometricPrecision" stroke="rgb(150,150,150)" stroke-miterlimit="1.45">
      <rect x="2096.504" y="728" clip-path="url(#clipPath2)" fill="none" width="130" rx="4" ry="4" height="32"/>
      <rect stroke-linecap="square" x="2096.504" y="728" clip-path="url(#clipPath2)" width="130" rx="4" ry="4" height="15" stroke="none" stroke-miterlimit="10"/>
    </g>
    <g stroke-linecap="butt" transform="matrix(2,0,0,2,-2842,-1206)" fill="white" text-rendering="geometricPrecision" font-family="sans-serif" shape-rendering="geometricPrecision" stroke="white" font-weight="bold" stroke-miterlimit="1.45">
      <text x="2138.1543" xml:space="preserve" y="740.2139" clip-path="url(#clipPath2)" stroke="none">Process</text>
    </g>
    <g stroke-linecap="butt" transform="matrix(2,0,0,2,-2842,-1206)" fill="rgb(150,150,150)" text-rendering="geometricPrecision" shape-rendering="geometricPrecision" stroke="rgb(150,150,150)" stroke-miterlimit="1.45">
      <rect x="2096.504" y="728" clip-path="url(#clipPath2)" fill="none" width="130" rx="4" ry="4" height="15"/>
    </g>
    <g fill="white" text-rendering="geometricPrecision" shape-rendering="geometricPrecision" transform="matrix(2,0,0,2,-2842,-1206)" stroke="white">
      <rect x="2096.504" y="888" clip-path="url(#clipPath2)" width="130" rx="4" ry="4" height="32" stroke="none"/>
    </g>
    <g stroke-linecap="butt" transform="matrix(2,0,0,2,-2842,-1206)" text-rendering="geometricPrecision" font-family="sans-serif" shape-rendering="geometricPrecision" font-weight="bold" stroke-miterlimit="1.45">
      <text x="2130.833" xml:space="preserve" y="915.3633" clip-path="url(#clipPath2)" stroke="none">Phenotype</text>
    </g>
    <g stroke-linecap="butt" transform="matrix(2,0,0,2,-2842,-1206)" fill="rgb(150,150,150)" text-rendering="geometricPrecision" shape-rendering="geometricPrecision" stroke="rgb(150,150,150)" stroke-miterlimit="1.45">
      <rect x="2096.504" y="888" clip-path="url(#clipPath2)" fill="none" width="130" rx="4" ry="4" height="32"/>
      <rect stroke-linecap="square" x="2096.504" y="888" clip-path="url(#clipPath2)" width="130" rx="4" ry="4" height="15" stroke="none" stroke-miterlimit="10"/>
    </g>
    <g stroke-linecap="butt" transform="matrix(2,0,0,2,-2842,-1206)" fill="white" text-rendering="geometricPrecision" font-family="sans-serif" shape-rendering="geometricPrecision" stroke="white" font-weight="bold" stroke-miterlimit="1.45">
      <text x="2131.5039" xml:space="preserve" y="900.2139" clip-path="url(#clipPath2)" stroke="none">Attributive</text>
    </g>
    <g stroke-linecap="butt" transform="matrix(2,0,0,2,-2842,-1206)" fill="rgb(150,150,150)" text-rendering="geometricPrecision" shape-rendering="geometricPrecision" stroke="rgb(150,150,150)" stroke-miterlimit="1.45">
      <rect x="2096.504" y="888" clip-path="url(#clipPath2)" fill="none" width="130" rx="4" ry="4" height="15"/>
    </g>
    <g fill="white" text-rendering="geometricPrecision" shape-rendering="geometricPrecision" transform="matrix(2,0,0,2,-2842,-1206)" stroke="white">
      <rect x="2096.504" y="808" clip-path="url(#clipPath2)" width="130" rx="4" ry="4" height="32" stroke="none"/>
    </g>
    <g stroke-linecap="butt" transform="matrix(2,0,0,2,-2842,-1206)" text-rendering="geometricPrecision" font-family="sans-serif" shape-rendering="geometricPrecision" font-weight="bold" stroke-miterlimit="1.45">
      <text x="2133.4961" xml:space="preserve" y="835.3633" clip-path="url(#clipPath2)" stroke="none">Organism</text>
    </g>
    <g stroke-linecap="butt" transform="matrix(2,0,0,2,-2842,-1206)" fill="rgb(150,150,150)" text-rendering="geometricPrecision" shape-rendering="geometricPrecision" stroke="rgb(150,150,150)" stroke-miterlimit="1.45">
      <rect x="2096.504" y="808" clip-path="url(#clipPath2)" fill="none" width="130" rx="4" ry="4" height="32"/>
      <rect stroke-linecap="square" x="2096.504" y="808" clip-path="url(#clipPath2)" width="130" rx="4" ry="4" height="15" stroke="none" stroke-miterlimit="10"/>
    </g>
    <g stroke-linecap="butt" transform="matrix(2,0,0,2,-2842,-1206)" fill="white" text-rendering="geometricPrecision" font-family="sans-serif" shape-rendering="geometricPrecision" stroke="white" font-weight="bold" stroke-miterlimit="1.45">
      <text x="2142.833" xml:space="preserve" y="820.2139" clip-path="url(#clipPath2)" stroke="none">Object</text>
    </g>
    <g stroke-linecap="butt" transform="matrix(2,0,0,2,-2842,-1206)" fill="rgb(150,150,150)" text-rendering="geometricPrecision" shape-rendering="geometricPrecision" stroke="rgb(150,150,150)" stroke-miterlimit="1.45">
      <rect x="2096.504" y="808" clip-path="url(#clipPath2)" fill="none" width="130" rx="4" ry="4" height="15"/>
    </g>
  </g>
</svg>
