<?xml version="1.0" encoding="UTF-8"?><svg xmlns="http://www.w3.org/2000/svg" xmlns:xlink="http://www.w3.org/1999/xlink" fill-opacity="1" color-rendering="auto" color-interpolation="auto" text-rendering="auto" stroke="black" stroke-linecap="square" width="1562" stroke-miterlimit="10" shape-rendering="auto" stroke-opacity="1" fill="black" stroke-dasharray="none" font-weight="normal" stroke-width="1" height="764" font-family="'Dialog'" font-style="normal" stroke-linejoin="miter" font-size="12px" stroke-dashoffset="0" image-rendering="auto">
  <!--Generated by ySVG 2.6-->
  <defs id="genericDefs"/>
  <g>
    <defs id="defs1">
      <clipPath clipPathUnits="userSpaceOnUse" id="clipPath1">
        <path d="M0 0 L1562 0 L1562 764 L0 764 L0 0 Z"/>
      </clipPath>
      <clipPath clipPathUnits="userSpaceOnUse" id="clipPath2">
        <path d="M1421 603 L2202 603 L2202 985 L1421 985 L1421 603 Z"/>
      </clipPath>
    </defs>
    <g fill="white" text-rendering="geometricPrecision" shape-rendering="geometricPrecision" transform="scale(2,2) translate(-1421,-603)" stroke="white">
      <rect x="1421" width="781" height="382" y="603" clip-path="url(#clipPath2)" stroke="none"/>
    </g>
    <g text-rendering="geometricPrecision" stroke-miterlimit="1.45" shape-rendering="geometricPrecision" transform="matrix(2,0,0,2,-2842,-1206)" stroke-linecap="butt">
      <path fill="none" d="M1573.8275 961.52 L1626.3269 961.52" clip-path="url(#clipPath2)"/>
      <path fill="white" d="M1641.3269 961.52 L1625.3269 955.52 L1625.3269 967.52 Z" clip-path="url(#clipPath2)" stroke="none"/>
      <path fill="none" d="M1641.3269 961.52 L1625.3269 955.52 L1625.3269 967.52 Z" clip-path="url(#clipPath2)"/>
      <text x="1576.5594" xml:space="preserve" y="954.8833" clip-path="url(#clipPath2)" font-family="sans-serif" stroke="none">subClassOf</text>
      <path fill="none" d="M1657.7267 961.52 L1725.8273 961.52" clip-path="url(#clipPath2)"/>
      <path d="M1733.8273 961.52 L1721.8273 956.52 L1724.8273 961.52 L1721.8273 966.52 Z" clip-path="url(#clipPath2)" stroke="none"/>
      <text x="1660.0807" xml:space="preserve" y="954.8833" clip-path="url(#clipPath2)" font-family="sans-serif" stroke="none">otherRelation</text>
      <path fill="none" d="M1697.6816 870 L1710 870 L1710 910 L1798.7761 910" clip-path="url(#clipPath2)"/>
      <path d="M1806.7761 910 L1794.7761 905 L1797.7761 910 L1794.7761 915 Z" clip-path="url(#clipPath2)" stroke="none"/>
      <rect x="1751.8295" y="908" clip-path="url(#clipPath2)" fill="white" width="4" height="4" stroke="none"/>
      <path fill="none" d="M1697.6725 910 L1798.7784 910" clip-path="url(#clipPath2)"/>
      <path d="M1806.7784 910 L1794.7784 905 L1797.7784 910 L1794.7784 915 Z" clip-path="url(#clipPath2)" stroke="none"/>
      <rect x="1721.8763" y="900.6494" clip-path="url(#clipPath2)" fill="white" width="60.6953" height="18.7012" stroke="none"/>
      <text x="1723.8763" xml:space="preserve" y="914.7139" clip-path="url(#clipPath2)" font-family="sans-serif" stroke="none">represents</text>
      <path fill="none" d="M1697.631 790 L1720 790 L1720 870 L1798.759 870" clip-path="url(#clipPath2)"/>
      <path d="M1806.759 870 L1794.759 865 L1797.759 870 L1794.759 875 Z" clip-path="url(#clipPath2)" stroke="none"/>
      <path fill="none" d="M1697.631 830 L1720 830 L1720 870 L1798.759 870" clip-path="url(#clipPath2)"/>
      <path d="M1806.759 870 L1794.759 865 L1797.759 870 L1794.759 875 Z" clip-path="url(#clipPath2)" stroke="none"/>
      <rect x="1728.4818" y="860.6494" clip-path="url(#clipPath2)" fill="white" width="60.6953" height="18.7012" stroke="none"/>
      <text x="1730.4818" xml:space="preserve" y="874.7139" clip-path="url(#clipPath2)" font-family="sans-serif" stroke="none">represents</text>
      <path fill="none" d="M1894.2841 899.9609 L1894.2841 887.9772" clip-path="url(#clipPath2)"/>
      <path d="M1894.2841 879.9772 L1889.2841 891.9772 L1894.2841 888.9772 L1899.2841 891.9772 Z" clip-path="url(#clipPath2)" stroke="none"/>
      <text x="1900.2841" xml:space="preserve" y="894.7139" clip-path="url(#clipPath2)" font-family="sans-serif" stroke="none">restrictionOf</text>
      <path fill="none" d="M1454.691 830 L1447.1639 830 L1447.1639 774.9609" clip-path="url(#clipPath2)"/>
      <path fill="white" d="M1447.1639 759.9609 L1441.1639 775.9609 L1453.1639 775.9609 Z" clip-path="url(#clipPath2)" stroke="none"/>
      <path fill="none" d="M1447.1639 759.9609 L1441.1639 775.9609 L1453.1639 775.9609 Z" clip-path="url(#clipPath2)"/>
      <path fill="none" d="M1454.691 790 L1447.1639 790 L1447.1639 774.9609" clip-path="url(#clipPath2)"/>
      <path fill="white" d="M1447.1639 759.9609 L1441.1639 775.9609 L1453.1639 775.9609 Z" clip-path="url(#clipPath2)" stroke="none"/>
      <path fill="none" d="M1447.1639 759.9609 L1441.1639 775.9609 L1453.1639 775.9609 Z" clip-path="url(#clipPath2)"/>
      <path fill="none" d="M1454.691 910 L1447.1639 910 L1447.1639 774.9609" clip-path="url(#clipPath2)"/>
      <path fill="white" d="M1447.1639 759.9609 L1441.1639 775.9609 L1453.1639 775.9609 Z" clip-path="url(#clipPath2)" stroke="none"/>
      <path fill="none" d="M1447.1639 759.9609 L1441.1639 775.9609 L1453.1639 775.9609 Z" clip-path="url(#clipPath2)"/>
      <path fill="none" d="M1454.691 870 L1447.1639 870 L1447.1639 774.9902" clip-path="url(#clipPath2)"/>
      <path fill="white" d="M1447.1639 759.9902 L1441.1639 775.9902 L1453.1639 775.9902 Z" clip-path="url(#clipPath2)" stroke="none"/>
      <path fill="none" d="M1447.1639 759.9902 L1441.1639 775.9902 L1453.1639 775.9902 Z" clip-path="url(#clipPath2)"/>
      <path fill="none" d="M1568.6639 719.9609 L1568.6639 731.9968" clip-path="url(#clipPath2)"/>
      <path d="M1568.6639 739.9968 L1573.6639 727.9968 L1568.6639 730.9968 L1563.6639 727.9968 Z" clip-path="url(#clipPath2)" stroke="none"/>
      <text x="1521.3085" xml:space="preserve" y="734.7139" clip-path="url(#clipPath2)" font-family="sans-serif" stroke="none">hasPart</text>
      <path fill="none" d="M1697.6943 675 L1720.928 675 L1720.928 745 L1705.6943 745" clip-path="url(#clipPath2)"/>
      <path d="M1697.6943 745 L1709.6943 750 L1706.6943 745 L1709.6943 740 Z" clip-path="url(#clipPath2)" stroke="none"/>
      <rect x="1621.1761" y="680.2174" clip-path="url(#clipPath2)" fill="white" width="182.0957" height="18.7012" stroke="none"/>
      <text x="1623.1761" xml:space="preserve" y="694.2819" clip-path="url(#clipPath2)" font-family="sans-serif" stroke="none">hasInclusion/Exclusion/Projection</text>
      <path fill="none" d="M1576.1639 779.9609 L1576.1639 767.9772" clip-path="url(#clipPath2)"/>
      <path d="M1576.1639 759.9772 L1571.1639 771.9772 L1576.1639 768.9772 L1581.1639 771.9772 Z" clip-path="url(#clipPath2)" stroke="none"/>
      <text x="1502.8104" xml:space="preserve" y="774.7139" clip-path="url(#clipPath2)" font-family="sans-serif" stroke="none">derivedFrom</text>
      <path fill="none" d="M1821.7523 710 L1814.2841 710 L1814.2841 694.9609" clip-path="url(#clipPath2)"/>
      <path fill="white" d="M1814.2841 679.9609 L1808.2841 695.9609 L1820.2841 695.9609 Z" clip-path="url(#clipPath2)" stroke="none"/>
      <path fill="none" d="M1814.2841 679.9609 L1808.2841 695.9609 L1820.2841 695.9609 Z" clip-path="url(#clipPath2)"/>
      <path fill="none" d="M1821.7523 750 L1814.2841 750 L1814.2841 694.9609" clip-path="url(#clipPath2)"/>
      <path fill="white" d="M1814.2841 679.9609 L1808.2841 695.9609 L1820.2841 695.9609 Z" clip-path="url(#clipPath2)" stroke="none"/>
      <path fill="none" d="M1814.2841 679.9609 L1808.2841 695.9609 L1820.2841 695.9609 Z" clip-path="url(#clipPath2)"/>
      <path fill="none" d="M2068.8176 670 L2004.7599 670" clip-path="url(#clipPath2)"/>
      <path d="M1996.7599 670 L2008.7599 675 L2005.7599 670 L2008.7599 665 Z" clip-path="url(#clipPath2)" stroke="none"/>
      <text x="2002.1272" xml:space="preserve" y="663.3633" clip-path="url(#clipPath2)" font-family="sans-serif" stroke="none">implements</text>
      <path fill="none" d="M1568.6639 679.9609 L1568.6639 691.9968" clip-path="url(#clipPath2)"/>
      <path d="M1568.6639 699.9968 L1573.6639 687.9968 L1568.6639 690.9968 L1563.6639 687.9968 Z" clip-path="url(#clipPath2)" stroke="none"/>
      <text x="1513.9608" xml:space="preserve" y="694.7139" clip-path="url(#clipPath2)" font-family="sans-serif" stroke="none">basedOn</text>
      <path fill="none" d="M1806.7521 665 L1705.6769 665" clip-path="url(#clipPath2)"/>
      <path d="M1697.6769 665 L1709.6769 670 L1706.6769 665 L1709.6769 660 Z" clip-path="url(#clipPath2)" stroke="none"/>
      <text x="1716.2035" xml:space="preserve" y="658.3633" clip-path="url(#clipPath2)" font-family="sans-serif" stroke="none">applicableFor</text>
      <path fill="none" d="M1901.7841 659.9824 L1901.7841 654.9883" clip-path="url(#clipPath2)"/>
      <path fill="white" d="M1901.7841 639.9883 L1895.7841 655.9883 L1907.7841 655.9883 Z" clip-path="url(#clipPath2)" stroke="none"/>
      <path fill="none" d="M1901.7841 639.9883 L1895.7841 655.9883 L1907.7841 655.9883 Z" clip-path="url(#clipPath2)"/>
      <path fill="none" d="M2133.824 659.9824 L2133.824 654.9883" clip-path="url(#clipPath2)"/>
      <path fill="white" d="M2133.824 639.9883 L2127.824 655.9883 L2139.824 655.9883 Z" clip-path="url(#clipPath2)" stroke="none"/>
      <path fill="none" d="M2133.824 639.9883 L2127.824 655.9883 L2139.824 655.9883 Z" clip-path="url(#clipPath2)"/>
      <path fill="none" d="M1697.6564 755 L1776.964 755 L1776.964 784 L1798.7977 784" clip-path="url(#clipPath2)"/>
      <path d="M1806.7977 784 L1794.7977 779 L1797.7977 784 L1794.7977 789 Z" clip-path="url(#clipPath2)" stroke="none"/>
      <rect x="1719.1988" y="745.6494" clip-path="url(#clipPath2)" fill="white" width="45.3555" height="18.7012" stroke="none"/>
      <text x="1721.1987" xml:space="preserve" y="759.7139" clip-path="url(#clipPath2)" font-family="sans-serif" stroke="none">hasPart</text>
      <path fill="none" d="M1439.6621 750 L1432.1639 750 L1432.1639 655.0269" clip-path="url(#clipPath2)"/>
      <path fill="white" d="M1432.1639 640.0269 L1426.1639 656.0269 L1438.1639 656.0269 Z" clip-path="url(#clipPath2)" stroke="none"/>
      <path fill="none" d="M1432.1639 640.0269 L1426.1639 656.0269 L1438.1639 656.0269 Z" clip-path="url(#clipPath2)"/>
      <path fill="none" d="M1439.6621 710 L1432.1639 710 L1432.1639 654.999" clip-path="url(#clipPath2)"/>
      <path fill="white" d="M1432.1639 639.999 L1426.1639 655.999 L1438.1639 655.999 Z" clip-path="url(#clipPath2)" stroke="none"/>
      <path fill="none" d="M1432.1639 639.999 L1426.1639 655.999 L1438.1639 655.999 Z" clip-path="url(#clipPath2)"/>
      <path fill="none" d="M1439.6621 670 L1432.1639 670 L1432.1639 655.0371" clip-path="url(#clipPath2)"/>
      <path fill="white" d="M1432.1639 640.0371 L1426.1639 656.0371 L1438.1639 656.0371 Z" clip-path="url(#clipPath2)" stroke="none"/>
      <path fill="none" d="M1432.1639 640.0371 L1426.1639 656.0371 L1438.1639 656.0371 Z" clip-path="url(#clipPath2)"/>
      <path fill="none" d="M1981.8052 910 L1989.2841 910 L1989.2841 854.999" clip-path="url(#clipPath2)"/>
      <path fill="white" d="M1989.2841 839.999 L1983.2841 855.999 L1995.2841 855.999 Z" clip-path="url(#clipPath2)" stroke="none"/>
      <path fill="none" d="M1989.2841 839.999 L1983.2841 855.999 L1995.2841 855.999 Z" clip-path="url(#clipPath2)"/>
      <path fill="none" d="M1981.8052 870 L1989.2841 870 L1989.2841 855.0371" clip-path="url(#clipPath2)"/>
      <path fill="white" d="M1989.2841 840.0371 L1983.2841 856.0371 L1995.2841 856.0371 Z" clip-path="url(#clipPath2)" stroke="none"/>
      <path fill="none" d="M1989.2841 840.0371 L1983.2841 856.0371 L1995.2841 856.0371 Z" clip-path="url(#clipPath2)"/>
      <path fill="none" d="M2068.7778 904 L2032.52 904 L2032.52 824 L2004.8038 824" clip-path="url(#clipPath2)"/>
      <path d="M1996.8038 824 L2008.8038 829 L2005.8038 824 L2008.8038 819 Z" clip-path="url(#clipPath2)" stroke="none"/>
      <rect x="2001.8384" y="854.6494" clip-path="url(#clipPath2)" fill="white" width="61.3633" height="18.7012" stroke="none"/>
      <text x="2003.8384" xml:space="preserve" y="868.7139" clip-path="url(#clipPath2)" font-family="sans-serif" stroke="none">instanceOf</text>
      <path fill="none" d="M2133.824 680.0088 L2133.824 719.9709" clip-path="url(#clipPath2)"/>
      <path d="M2133.824 727.9709 L2138.824 715.9709 L2133.824 718.9709 L2128.824 715.9709 Z" clip-path="url(#clipPath2)" stroke="none"/>
      <rect x="2111.1492" y="690.125" clip-path="url(#clipPath2)" fill="white" width="45.3496" height="18.7012" stroke="none"/>
      <text x="2113.1492" xml:space="preserve" y="704.1895" clip-path="url(#clipPath2)" font-family="sans-serif" stroke="none">realises</text>
      <path fill="none" d="M2133.824 880.0234 L2133.824 839.9746" clip-path="url(#clipPath2)"/>
      <path d="M2133.824 888.0234 L2138.824 876.0234 L2133.824 879.0234 L2128.824 876.0234 Z" clip-path="url(#clipPath2)" stroke="none"/>
      <rect x="2095.4724" y="850.125" clip-path="url(#clipPath2)" fill="white" width="76.7031" height="18.7012" stroke="none"/>
      <text x="2097.4724" xml:space="preserve" y="864.1895" clip-path="url(#clipPath2)" font-family="sans-serif" stroke="none">hasAttributive</text>
      <path fill="none" d="M2133.824 759.9766 L2133.824 800.0254" clip-path="url(#clipPath2)"/>
      <path d="M2133.824 808.0254 L2138.824 796.0254 L2133.824 799.0254 L2128.824 796.0254 Z" clip-path="url(#clipPath2)" stroke="none"/>
      <rect x="2108.1433" y="770.125" clip-path="url(#clipPath2)" fill="white" width="51.3613" height="18.7012" stroke="none"/>
      <text x="2110.1433" xml:space="preserve" y="784.1895" clip-path="url(#clipPath2)" font-family="sans-serif" stroke="none">identifies</text>
      <rect x="1424.664" y="933.84" clip-path="url(#clipPath2)" fill="none" width="316.22" stroke-dasharray="6,2" height="47.56"/>
    </g>
    <g fill="white" text-rendering="geometricPrecision" shape-rendering="geometricPrecision" transform="matrix(2,0,0,2,-2842,-1206)" stroke="white">
      <rect x="1430.424" y="940" clip-path="url(#clipPath2)" width="130.2" rx="4" ry="4" height="35" stroke="none"/>
    </g>
    <g stroke-linecap="butt" transform="matrix(2,0,0,2,-2842,-1206)" text-rendering="geometricPrecision" font-family="sans-serif" shape-rendering="geometricPrecision" font-weight="bold" stroke-miterlimit="1.45">
      <text x="1465.8405" xml:space="preserve" y="970.3633" clip-path="url(#clipPath2)" stroke="none">COP class</text>
    </g>
    <g stroke-linecap="butt" transform="matrix(2,0,0,2,-2842,-1206)" fill="rgb(150,150,150)" text-rendering="geometricPrecision" shape-rendering="geometricPrecision" stroke="rgb(150,150,150)" stroke-miterlimit="1.45">
      <rect x="1430.424" y="940" clip-path="url(#clipPath2)" fill="none" width="130.2" rx="4" ry="4" height="35"/>
      <rect stroke-linecap="square" x="1430.424" y="940" clip-path="url(#clipPath2)" width="130.2" rx="4" ry="4" height="15" stroke="none" stroke-miterlimit="10"/>
    </g>
    <g stroke-linecap="butt" transform="matrix(2,0,0,2,-2842,-1206)" fill="white" text-rendering="geometricPrecision" font-family="sans-serif" shape-rendering="geometricPrecision" stroke="white" font-weight="bold" stroke-miterlimit="1.45">
      <text x="1434.8444" xml:space="preserve" y="952.2139" clip-path="url(#clipPath2)" stroke="none">GFO-light superclass</text>
    </g>
    <g stroke-linecap="butt" transform="matrix(2,0,0,2,-2842,-1206)" fill="rgb(150,150,150)" text-rendering="geometricPrecision" shape-rendering="geometricPrecision" stroke="rgb(150,150,150)" stroke-miterlimit="1.45">
      <rect x="1430.424" y="940" clip-path="url(#clipPath2)" fill="none" width="130.2" rx="4" ry="4" height="15"/>
    </g>
    <g fill="white" text-rendering="geometricPrecision" shape-rendering="geometricPrecision" transform="matrix(2,0,0,2,-2842,-1206)" stroke="white">
      <rect x="1806.784" y="900" clip-path="url(#clipPath2)" width="175" rx="4" ry="4" height="20" stroke="none"/>
    </g>
    <g stroke-linecap="butt" transform="matrix(2,0,0,2,-2842,-1206)" text-rendering="geometricPrecision" font-family="sans-serif" shape-rendering="geometricPrecision" font-weight="bold" stroke-miterlimit="1.45">
      <text x="1818.2587" xml:space="preserve" y="914.7139" clip-path="url(#clipPath2)" stroke="none">RestrictedPhenotypeClass</text>
    </g>
    <g stroke-linecap="butt" transform="matrix(2,0,0,2,-2842,-1206)" fill="rgb(96,96,179)" text-rendering="geometricPrecision" shape-rendering="geometricPrecision" stroke="rgb(96,96,179)" stroke-miterlimit="1.45">
      <rect x="1806.784" y="900" clip-path="url(#clipPath2)" fill="none" width="175" rx="4" ry="4" height="20"/>
    </g>
    <g fill="white" text-rendering="geometricPrecision" shape-rendering="geometricPrecision" transform="matrix(2,0,0,2,-2842,-1206)" stroke="white">
      <rect x="1806.784" y="860" clip-path="url(#clipPath2)" width="175" rx="4" ry="4" height="20" stroke="none"/>
    </g>
    <g stroke-linecap="butt" transform="matrix(2,0,0,2,-2842,-1206)" text-rendering="geometricPrecision" font-family="sans-serif" shape-rendering="geometricPrecision" font-weight="bold" stroke-miterlimit="1.45">
      <text x="1812.2587" xml:space="preserve" y="874.7139" clip-path="url(#clipPath2)" stroke="none">UnrestrictedPhenotypeClass</text>
    </g>
    <g stroke-linecap="butt" transform="matrix(2,0,0,2,-2842,-1206)" fill="rgb(96,96,179)" text-rendering="geometricPrecision" shape-rendering="geometricPrecision" stroke="rgb(96,96,179)" stroke-miterlimit="1.45">
      <rect x="1806.784" y="860" clip-path="url(#clipPath2)" fill="none" width="175" rx="4" ry="4" height="20"/>
    </g>
    <g fill="white" text-rendering="geometricPrecision" shape-rendering="geometricPrecision" transform="matrix(2,0,0,2,-2842,-1206)" stroke="white">
      <rect x="1439.664" y="740" clip-path="url(#clipPath2)" width="258" rx="4" ry="4" height="20" stroke="none"/>
    </g>
    <g stroke-linecap="butt" transform="matrix(2,0,0,2,-2842,-1206)" text-rendering="geometricPrecision" font-family="sans-serif" shape-rendering="geometricPrecision" font-weight="bold" stroke-miterlimit="1.45">
      <text x="1508.3094" xml:space="preserve" y="754.7139" clip-path="url(#clipPath2)" stroke="none">PhenotypeClassView</text>
    </g>
    <g stroke-linecap="butt" transform="matrix(2,0,0,2,-2842,-1206)" fill="rgb(179,134,134)" text-rendering="geometricPrecision" shape-rendering="geometricPrecision" stroke="rgb(179,134,134)" stroke-miterlimit="1.45">
      <rect x="1439.664" y="740" clip-path="url(#clipPath2)" fill="none" width="258" rx="4" ry="4" height="20"/>
    </g>
    <g fill="white" text-rendering="geometricPrecision" shape-rendering="geometricPrecision" transform="matrix(2,0,0,2,-2842,-1206)" stroke="white">
      <rect x="1454.664" y="820" clip-path="url(#clipPath2)" width="243" rx="4" ry="4" height="20" stroke="none"/>
    </g>
    <g stroke-linecap="butt" transform="matrix(2,0,0,2,-2842,-1206)" text-rendering="geometricPrecision" font-family="sans-serif" shape-rendering="geometricPrecision" font-weight="bold" stroke-miterlimit="1.45">
      <text x="1464.455" xml:space="preserve" y="834.7139" clip-path="url(#clipPath2)" stroke="none">BasicUnrestrictedPhenotypeClassView</text>
    </g>
    <g stroke-linecap="butt" transform="matrix(2,0,0,2,-2842,-1206)" fill="rgb(179,134,134)" text-rendering="geometricPrecision" shape-rendering="geometricPrecision" stroke="rgb(179,134,134)" stroke-miterlimit="1.45">
      <rect x="1454.664" y="820" clip-path="url(#clipPath2)" fill="none" width="243" rx="4" ry="4" height="20"/>
    </g>
    <g fill="white" text-rendering="geometricPrecision" shape-rendering="geometricPrecision" transform="matrix(2,0,0,2,-2842,-1206)" stroke="white">
      <rect x="1454.664" y="780" clip-path="url(#clipPath2)" width="243" rx="4" ry="4" height="20" stroke="none"/>
    </g>
    <g stroke-linecap="butt" transform="matrix(2,0,0,2,-2842,-1206)" text-rendering="geometricPrecision" font-family="sans-serif" shape-rendering="geometricPrecision" font-weight="bold" stroke-miterlimit="1.45">
      <text x="1458.455" xml:space="preserve" y="794.7139" clip-path="url(#clipPath2)" stroke="none">DerivedUnrestrictedPhenotypeClassView</text>
    </g>
    <g stroke-linecap="butt" transform="matrix(2,0,0,2,-2842,-1206)" fill="rgb(179,134,134)" text-rendering="geometricPrecision" shape-rendering="geometricPrecision" stroke="rgb(179,134,134)" stroke-miterlimit="1.45">
      <rect x="1454.664" y="780" clip-path="url(#clipPath2)" fill="none" width="243" rx="4" ry="4" height="20"/>
    </g>
    <g fill="white" text-rendering="geometricPrecision" shape-rendering="geometricPrecision" transform="matrix(2,0,0,2,-2842,-1206)" stroke="white">
      <rect x="1454.664" y="900" clip-path="url(#clipPath2)" width="243" rx="4" ry="4" height="20" stroke="none"/>
    </g>
    <g stroke-linecap="butt" transform="matrix(2,0,0,2,-2842,-1206)" text-rendering="geometricPrecision" font-family="sans-serif" shape-rendering="geometricPrecision" font-weight="bold" stroke-miterlimit="1.45">
      <text x="1470.455" xml:space="preserve" y="914.7139" clip-path="url(#clipPath2)" stroke="none">BasicRestrictedPhenotypeClassView</text>
    </g>
    <g stroke-linecap="butt" transform="matrix(2,0,0,2,-2842,-1206)" fill="rgb(179,134,134)" text-rendering="geometricPrecision" shape-rendering="geometricPrecision" stroke="rgb(179,134,134)" stroke-miterlimit="1.45">
      <rect x="1454.664" y="900" clip-path="url(#clipPath2)" fill="none" width="243" rx="4" ry="4" height="20"/>
    </g>
    <g fill="white" text-rendering="geometricPrecision" shape-rendering="geometricPrecision" transform="matrix(2,0,0,2,-2842,-1206)" stroke="white">
      <rect x="1454.664" y="860" clip-path="url(#clipPath2)" width="243" rx="4" ry="4" height="20" stroke="none"/>
    </g>
    <g stroke-linecap="butt" transform="matrix(2,0,0,2,-2842,-1206)" text-rendering="geometricPrecision" font-family="sans-serif" shape-rendering="geometricPrecision" font-weight="bold" stroke-miterlimit="1.45">
      <text x="1464.455" xml:space="preserve" y="874.7139" clip-path="url(#clipPath2)" stroke="none">DerivedRestrictedPhenotypeClassView</text>
    </g>
    <g stroke-linecap="butt" transform="matrix(2,0,0,2,-2842,-1206)" fill="rgb(179,134,134)" text-rendering="geometricPrecision" shape-rendering="geometricPrecision" stroke="rgb(179,134,134)" stroke-miterlimit="1.45">
      <rect x="1454.664" y="860" clip-path="url(#clipPath2)" fill="none" width="243" rx="4" ry="4" height="20"/>
    </g>
    <g fill="white" text-rendering="geometricPrecision" shape-rendering="geometricPrecision" transform="matrix(2,0,0,2,-2842,-1206)" stroke="white">
      <rect x="2068.824" y="660" clip-path="url(#clipPath2)" width="130" rx="4" ry="4" height="20" stroke="none"/>
    </g>
    <g stroke-linecap="butt" transform="matrix(2,0,0,2,-2842,-1206)" text-rendering="geometricPrecision" font-family="sans-serif" shape-rendering="geometricPrecision" font-weight="bold" stroke-miterlimit="1.45">
      <text x="2072.1541" xml:space="preserve" y="674.7139" clip-path="url(#clipPath2)" stroke="none">PhenotypingSoftware</text>
    </g>
    <g stroke-linecap="butt" transform="matrix(2,0,0,2,-2842,-1206)" fill="rgb(179,134,134)" text-rendering="geometricPrecision" shape-rendering="geometricPrecision" stroke="rgb(179,134,134)" stroke-miterlimit="1.45">
      <rect x="2068.824" y="660" clip-path="url(#clipPath2)" fill="none" width="130" rx="4" ry="4" height="20"/>
    </g>
    <g fill="white" text-rendering="geometricPrecision" shape-rendering="geometricPrecision" transform="matrix(2,0,0,2,-2842,-1206)" stroke="white">
      <rect x="1806.784" y="660" clip-path="url(#clipPath2)" width="190" rx="4" ry="4" height="20" stroke="none"/>
    </g>
    <g stroke-linecap="butt" transform="matrix(2,0,0,2,-2842,-1206)" text-rendering="geometricPrecision" font-family="sans-serif" shape-rendering="geometricPrecision" font-weight="bold" stroke-miterlimit="1.45">
      <text x="1842.7831" xml:space="preserve" y="674.7139" clip-path="url(#clipPath2)" stroke="none">PhenotypeAlgorithm</text>
    </g>
    <g stroke-linecap="butt" transform="matrix(2,0,0,2,-2842,-1206)" fill="rgb(179,134,134)" text-rendering="geometricPrecision" shape-rendering="geometricPrecision" stroke="rgb(179,134,134)" stroke-miterlimit="1.45">
      <rect x="1806.784" y="660" clip-path="url(#clipPath2)" fill="none" width="190" rx="4" ry="4" height="20"/>
    </g>
    <g fill="white" text-rendering="geometricPrecision" shape-rendering="geometricPrecision" transform="matrix(2,0,0,2,-2842,-1206)" stroke="white">
      <rect x="1821.784" y="740" clip-path="url(#clipPath2)" width="175" rx="4" ry="4" height="20" stroke="none"/>
    </g>
    <g stroke-linecap="butt" transform="matrix(2,0,0,2,-2842,-1206)" text-rendering="geometricPrecision" font-family="sans-serif" shape-rendering="geometricPrecision" font-weight="bold" stroke-miterlimit="1.45">
      <text x="1833.9442" xml:space="preserve" y="754.7139" clip-path="url(#clipPath2)" stroke="none">StaticPhenotypeAlgorithm</text>
    </g>
    <g stroke-linecap="butt" transform="matrix(2,0,0,2,-2842,-1206)" fill="rgb(179,134,134)" text-rendering="geometricPrecision" shape-rendering="geometricPrecision" stroke="rgb(179,134,134)" stroke-miterlimit="1.45">
      <rect x="1821.784" y="740" clip-path="url(#clipPath2)" fill="none" width="175" rx="4" ry="4" height="20"/>
    </g>
    <g fill="white" text-rendering="geometricPrecision" shape-rendering="geometricPrecision" transform="matrix(2,0,0,2,-2842,-1206)" stroke="white">
      <rect x="1821.784" y="700" clip-path="url(#clipPath2)" width="175" rx="4" ry="4" height="20" stroke="none"/>
    </g>
    <g stroke-linecap="butt" transform="matrix(2,0,0,2,-2842,-1206)" text-rendering="geometricPrecision" font-family="sans-serif" shape-rendering="geometricPrecision" font-weight="bold" stroke-miterlimit="1.45">
      <text x="1825.2723" xml:space="preserve" y="714.7139" clip-path="url(#clipPath2)" stroke="none">DynamicPhenotypeAlgorithm</text>
    </g>
    <g stroke-linecap="butt" transform="matrix(2,0,0,2,-2842,-1206)" fill="rgb(179,134,134)" text-rendering="geometricPrecision" shape-rendering="geometricPrecision" stroke="rgb(179,134,134)" stroke-miterlimit="1.45">
      <rect x="1821.784" y="700" clip-path="url(#clipPath2)" fill="none" width="175" rx="4" ry="4" height="20"/>
    </g>
    <g fill="white" text-rendering="geometricPrecision" shape-rendering="geometricPrecision" transform="matrix(2,0,0,2,-2842,-1206)" stroke="white">
      <rect x="1439.664" y="700" clip-path="url(#clipPath2)" width="258" rx="4" ry="4" height="20" stroke="none"/>
    </g>
    <g stroke-linecap="butt" transform="matrix(2,0,0,2,-2842,-1206)" text-rendering="geometricPrecision" font-family="sans-serif" shape-rendering="geometricPrecision" font-weight="bold" stroke-miterlimit="1.45">
      <text x="1520.661" xml:space="preserve" y="714.7139" clip-path="url(#clipPath2)" stroke="none">PhenotypeModel</text>
    </g>
    <g stroke-linecap="butt" transform="matrix(2,0,0,2,-2842,-1206)" fill="rgb(179,134,134)" text-rendering="geometricPrecision" shape-rendering="geometricPrecision" stroke="rgb(179,134,134)" stroke-miterlimit="1.45">
      <rect x="1439.664" y="700" clip-path="url(#clipPath2)" fill="none" width="258" rx="4" ry="4" height="20"/>
    </g>
    <g fill="white" text-rendering="geometricPrecision" shape-rendering="geometricPrecision" transform="matrix(2,0,0,2,-2842,-1206)" stroke="white">
      <rect x="1439.664" y="660" clip-path="url(#clipPath2)" width="258" rx="4" ry="4" height="20" stroke="none"/>
    </g>
    <g stroke-linecap="butt" transform="matrix(2,0,0,2,-2842,-1206)" text-rendering="geometricPrecision" font-family="sans-serif" shape-rendering="geometricPrecision" font-weight="bold" stroke-miterlimit="1.45">
      <text x="1520.6522" xml:space="preserve" y="674.7139" clip-path="url(#clipPath2)" stroke="none">PhenotypeQuery</text>
    </g>
    <g stroke-linecap="butt" transform="matrix(2,0,0,2,-2842,-1206)" fill="rgb(179,134,134)" text-rendering="geometricPrecision" shape-rendering="geometricPrecision" stroke="rgb(179,134,134)" stroke-miterlimit="1.45">
      <rect x="1439.664" y="660" clip-path="url(#clipPath2)" fill="none" width="258" rx="4" ry="4" height="20"/>
    </g>
    <g fill="white" text-rendering="geometricPrecision" shape-rendering="geometricPrecision" transform="matrix(2,0,0,2,-2842,-1206)" stroke="white">
      <rect x="1806.784" y="608" clip-path="url(#clipPath2)" width="190" rx="4" ry="4" height="32" stroke="none"/>
    </g>
    <g stroke-linecap="butt" transform="matrix(2,0,0,2,-2842,-1206)" text-rendering="geometricPrecision" font-family="sans-serif" shape-rendering="geometricPrecision" font-weight="bold" stroke-miterlimit="1.45">
      <text x="1873.454" xml:space="preserve" y="635.3633" clip-path="url(#clipPath2)" stroke="none">Algorithm</text>
    </g>
    <g stroke-linecap="butt" transform="matrix(2,0,0,2,-2842,-1206)" fill="rgb(179,134,134)" text-rendering="geometricPrecision" shape-rendering="geometricPrecision" stroke="rgb(179,134,134)" stroke-miterlimit="1.45">
      <rect x="1806.784" y="608" clip-path="url(#clipPath2)" fill="none" width="190" rx="4" ry="4" height="32"/>
      <rect stroke-linecap="square" x="1806.784" y="608" clip-path="url(#clipPath2)" width="190" rx="4" ry="4" height="15" stroke="none" stroke-miterlimit="10"/>
    </g>
    <g stroke-linecap="butt" transform="matrix(2,0,0,2,-2842,-1206)" fill="white" text-rendering="geometricPrecision" font-family="sans-serif" shape-rendering="geometricPrecision" stroke="white" font-weight="bold" stroke-miterlimit="1.45">
      <text x="1850.1161" xml:space="preserve" y="620.2139" clip-path="url(#clipPath2)" stroke="none">InformationObject</text>
    </g>
    <g stroke-linecap="butt" transform="matrix(2,0,0,2,-2842,-1206)" fill="rgb(179,134,134)" text-rendering="geometricPrecision" shape-rendering="geometricPrecision" stroke="rgb(179,134,134)" stroke-miterlimit="1.45">
      <rect x="1806.784" y="608" clip-path="url(#clipPath2)" fill="none" width="190" rx="4" ry="4" height="15"/>
    </g>
    <g fill="white" text-rendering="geometricPrecision" shape-rendering="geometricPrecision" transform="matrix(2,0,0,2,-2842,-1206)" stroke="white">
      <rect x="2068.824" y="608" clip-path="url(#clipPath2)" width="130" rx="4" ry="4" height="32" stroke="none"/>
    </g>
    <g stroke-linecap="butt" transform="matrix(2,0,0,2,-2842,-1206)" text-rendering="geometricPrecision" font-family="sans-serif" shape-rendering="geometricPrecision" font-weight="bold" stroke-miterlimit="1.45">
      <text x="2108.4851" xml:space="preserve" y="635.3633" clip-path="url(#clipPath2)" stroke="none">Software</text>
    </g>
    <g stroke-linecap="butt" transform="matrix(2,0,0,2,-2842,-1206)" fill="rgb(179,134,134)" text-rendering="geometricPrecision" shape-rendering="geometricPrecision" stroke="rgb(179,134,134)" stroke-miterlimit="1.45">
      <rect x="2068.824" y="608" clip-path="url(#clipPath2)" fill="none" width="130" rx="4" ry="4" height="32"/>
      <rect stroke-linecap="square" x="2068.824" y="608" clip-path="url(#clipPath2)" width="130" rx="4" ry="4" height="15" stroke="none" stroke-miterlimit="10"/>
    </g>
    <g stroke-linecap="butt" transform="matrix(2,0,0,2,-2842,-1206)" fill="white" text-rendering="geometricPrecision" font-family="sans-serif" shape-rendering="geometricPrecision" stroke="white" font-weight="bold" stroke-miterlimit="1.45">
      <text x="2082.156" xml:space="preserve" y="620.2139" clip-path="url(#clipPath2)" stroke="none">InformationObject</text>
    </g>
    <g stroke-linecap="butt" transform="matrix(2,0,0,2,-2842,-1206)" fill="rgb(179,134,134)" text-rendering="geometricPrecision" shape-rendering="geometricPrecision" stroke="rgb(179,134,134)" stroke-miterlimit="1.45">
      <rect x="2068.824" y="608" clip-path="url(#clipPath2)" fill="none" width="130" rx="4" ry="4" height="15"/>
    </g>
    <g fill="white" text-rendering="geometricPrecision" shape-rendering="geometricPrecision" transform="matrix(2,0,0,2,-2842,-1206)" stroke="white">
      <rect x="1806.784" y="768" clip-path="url(#clipPath2)" width="190" rx="4" ry="4" height="32" stroke="none"/>
    </g>
    <g stroke-linecap="butt" transform="matrix(2,0,0,2,-2842,-1206)" text-rendering="geometricPrecision" font-family="sans-serif" shape-rendering="geometricPrecision" font-weight="bold" stroke-miterlimit="1.45">
      <text x="1862.4471" xml:space="preserve" y="795.3633" clip-path="url(#clipPath2)" stroke="none">AttributeSpec</text>
    </g>
    <g stroke-linecap="butt" transform="matrix(2,0,0,2,-2842,-1206)" fill="rgb(179,134,134)" text-rendering="geometricPrecision" shape-rendering="geometricPrecision" stroke="rgb(179,134,134)" stroke-miterlimit="1.45">
      <rect x="1806.784" y="768" clip-path="url(#clipPath2)" fill="none" width="190" rx="4" ry="4" height="32"/>
      <rect stroke-linecap="square" x="1806.784" y="768" clip-path="url(#clipPath2)" width="190" rx="4" ry="4" height="15" stroke="none" stroke-miterlimit="10"/>
    </g>
    <g stroke-linecap="butt" transform="matrix(2,0,0,2,-2842,-1206)" fill="white" text-rendering="geometricPrecision" font-family="sans-serif" shape-rendering="geometricPrecision" stroke="white" font-weight="bold" stroke-miterlimit="1.45">
      <text x="1850.1161" xml:space="preserve" y="780.2139" clip-path="url(#clipPath2)" stroke="none">InformationObject</text>
    </g>
    <g stroke-linecap="butt" transform="matrix(2,0,0,2,-2842,-1206)" fill="rgb(179,134,134)" text-rendering="geometricPrecision" shape-rendering="geometricPrecision" stroke="rgb(179,134,134)" stroke-miterlimit="1.45">
      <rect x="1806.784" y="768" clip-path="url(#clipPath2)" fill="none" width="190" rx="4" ry="4" height="15"/>
    </g>
    <g fill="white" text-rendering="geometricPrecision" shape-rendering="geometricPrecision" transform="matrix(2,0,0,2,-2842,-1206)" stroke="white">
      <rect x="1424.664" y="608" clip-path="url(#clipPath2)" width="273" rx="4" ry="4" height="32" stroke="none"/>
    </g>
    <g stroke-linecap="butt" transform="matrix(2,0,0,2,-2842,-1206)" text-rendering="geometricPrecision" font-family="sans-serif" shape-rendering="geometricPrecision" font-weight="bold" stroke-miterlimit="1.45">
      <text x="1543.8319" xml:space="preserve" y="635.3633" clip-path="url(#clipPath2)" stroke="none">Model</text>
    </g>
    <g stroke-linecap="butt" transform="matrix(2,0,0,2,-2842,-1206)" fill="rgb(179,134,134)" text-rendering="geometricPrecision" shape-rendering="geometricPrecision" stroke="rgb(179,134,134)" stroke-miterlimit="1.45">
      <rect x="1424.664" y="608" clip-path="url(#clipPath2)" fill="none" width="273" rx="4" ry="4" height="32"/>
      <rect stroke-linecap="square" x="1424.664" y="608" clip-path="url(#clipPath2)" width="273" rx="4" ry="4" height="15" stroke="none" stroke-miterlimit="10"/>
    </g>
    <g stroke-linecap="butt" transform="matrix(2,0,0,2,-2842,-1206)" fill="white" text-rendering="geometricPrecision" font-family="sans-serif" shape-rendering="geometricPrecision" stroke="white" font-weight="bold" stroke-miterlimit="1.45">
      <text x="1509.496" xml:space="preserve" y="620.2139" clip-path="url(#clipPath2)" stroke="none">InformationObject</text>
    </g>
    <g stroke-linecap="butt" transform="matrix(2,0,0,2,-2842,-1206)" fill="rgb(179,134,134)" text-rendering="geometricPrecision" shape-rendering="geometricPrecision" stroke="rgb(179,134,134)" stroke-miterlimit="1.45">
      <rect x="1424.664" y="608" clip-path="url(#clipPath2)" fill="none" width="273" rx="4" ry="4" height="15"/>
    </g>
    <g fill="white" text-rendering="geometricPrecision" shape-rendering="geometricPrecision" transform="matrix(2,0,0,2,-2842,-1206)" stroke="white">
      <rect x="1806.784" y="808" clip-path="url(#clipPath2)" width="190" rx="4" ry="4" height="32" stroke="none"/>
    </g>
    <g stroke-linecap="butt" transform="matrix(2,0,0,2,-2842,-1206)" text-rendering="geometricPrecision" font-family="sans-serif" shape-rendering="geometricPrecision" font-weight="bold" stroke-miterlimit="1.45">
      <text x="1855.1024" xml:space="preserve" y="835.3633" clip-path="url(#clipPath2)" stroke="none">PhenotypeClass</text>
    </g>
    <g stroke-linecap="butt" transform="matrix(2,0,0,2,-2842,-1206)" fill="rgb(96,96,179)" text-rendering="geometricPrecision" shape-rendering="geometricPrecision" stroke="rgb(96,96,179)" stroke-miterlimit="1.45">
      <rect x="1806.784" y="808" clip-path="url(#clipPath2)" fill="none" width="190" rx="4" ry="4" height="32"/>
      <rect stroke-linecap="square" x="1806.784" y="808" clip-path="url(#clipPath2)" width="190" rx="4" ry="4" height="15" stroke="none" stroke-miterlimit="10"/>
    </g>
    <g stroke-linecap="butt" transform="matrix(2,0,0,2,-2842,-1206)" fill="white" text-rendering="geometricPrecision" font-family="sans-serif" shape-rendering="geometricPrecision" stroke="white" font-weight="bold" stroke-miterlimit="1.45">
      <text x="1875.7772" xml:space="preserve" y="820.2139" clip-path="url(#clipPath2)" stroke="none">Category</text>
    </g>
    <g stroke-linecap="butt" transform="matrix(2,0,0,2,-2842,-1206)" fill="rgb(96,96,179)" text-rendering="geometricPrecision" shape-rendering="geometricPrecision" stroke="rgb(96,96,179)" stroke-miterlimit="1.45">
      <rect x="1806.784" y="808" clip-path="url(#clipPath2)" fill="none" width="190" rx="4" ry="4" height="15"/>
    </g>
    <g fill="white" text-rendering="geometricPrecision" shape-rendering="geometricPrecision" transform="matrix(2,0,0,2,-2842,-1206)" stroke="white">
      <rect x="2068.824" y="728" clip-path="url(#clipPath2)" width="130" rx="4" ry="4" height="32" stroke="none"/>
    </g>
    <g stroke-linecap="butt" transform="matrix(2,0,0,2,-2842,-1206)" text-rendering="geometricPrecision" font-family="sans-serif" shape-rendering="geometricPrecision" font-weight="bold" stroke-miterlimit="1.45">
      <text x="2097.4929" xml:space="preserve" y="755.3633" clip-path="url(#clipPath2)" stroke="none">Phenotyping</text>
    </g>
    <g stroke-linecap="butt" transform="matrix(2,0,0,2,-2842,-1206)" fill="rgb(157,64,95)" text-rendering="geometricPrecision" shape-rendering="geometricPrecision" stroke="rgb(157,64,95)" stroke-miterlimit="1.45">
      <rect x="2068.824" y="728" clip-path="url(#clipPath2)" fill="none" width="130" rx="4" ry="4" height="32"/>
    </g>
    <g fill="rgb(247,149,29)" text-rendering="geometricPrecision" shape-rendering="geometricPrecision" transform="matrix(2,0,0,2,-2842,-1206)" stroke="rgb(247,149,29)">
      <rect x="2068.824" y="728" clip-path="url(#clipPath2)" width="130" rx="4" ry="4" height="15" stroke="none"/>
    </g>
    <g stroke-linecap="butt" transform="matrix(2,0,0,2,-2842,-1206)" fill="white" text-rendering="geometricPrecision" font-family="sans-serif" shape-rendering="geometricPrecision" stroke="white" font-weight="bold" stroke-miterlimit="1.45">
      <text x="2110.4744" xml:space="preserve" y="740.2139" clip-path="url(#clipPath2)" stroke="none">Process</text>
    </g>
    <g stroke-linecap="butt" transform="matrix(2,0,0,2,-2842,-1206)" fill="rgb(247,149,29)" text-rendering="geometricPrecision" shape-rendering="geometricPrecision" stroke="rgb(247,149,29)" stroke-miterlimit="1.45">
      <rect x="2068.824" y="728" clip-path="url(#clipPath2)" fill="none" width="130" rx="4" ry="4" height="15"/>
    </g>
    <g fill="white" text-rendering="geometricPrecision" shape-rendering="geometricPrecision" transform="matrix(2,0,0,2,-2842,-1206)" stroke="white">
      <rect x="2068.824" y="888" clip-path="url(#clipPath2)" width="130" rx="4" ry="4" height="32" stroke="none"/>
    </g>
    <g stroke-linecap="butt" transform="matrix(2,0,0,2,-2842,-1206)" text-rendering="geometricPrecision" font-family="sans-serif" shape-rendering="geometricPrecision" font-weight="bold" stroke-miterlimit="1.45">
      <text x="2103.1531" xml:space="preserve" y="915.3633" clip-path="url(#clipPath2)" stroke="none">Phenotype</text>
    </g>
    <g stroke-linecap="butt" transform="matrix(2,0,0,2,-2842,-1206)" fill="rgb(73,114,136)" text-rendering="geometricPrecision" shape-rendering="geometricPrecision" stroke="rgb(73,114,136)" stroke-miterlimit="1.45">
      <rect x="2068.824" y="888" clip-path="url(#clipPath2)" fill="none" width="130" rx="4" ry="4" height="32"/>
      <rect stroke-linecap="square" x="2068.824" y="888" clip-path="url(#clipPath2)" width="130" rx="4" ry="4" height="15" stroke="none" stroke-miterlimit="10"/>
    </g>
    <g stroke-linecap="butt" transform="matrix(2,0,0,2,-2842,-1206)" fill="white" text-rendering="geometricPrecision" font-family="sans-serif" shape-rendering="geometricPrecision" stroke="white" font-weight="bold" stroke-miterlimit="1.45">
      <text x="2103.824" xml:space="preserve" y="900.2139" clip-path="url(#clipPath2)" stroke="none">Attributive</text>
    </g>
    <g stroke-linecap="butt" transform="matrix(2,0,0,2,-2842,-1206)" fill="rgb(73,114,136)" text-rendering="geometricPrecision" shape-rendering="geometricPrecision" stroke="rgb(73,114,136)" stroke-miterlimit="1.45">
      <rect x="2068.824" y="888" clip-path="url(#clipPath2)" fill="none" width="130" rx="4" ry="4" height="15"/>
    </g>
    <g fill="white" text-rendering="geometricPrecision" shape-rendering="geometricPrecision" transform="matrix(2,0,0,2,-2842,-1206)" stroke="white">
      <rect x="2068.824" y="808" clip-path="url(#clipPath2)" width="130" rx="4" ry="4" height="32" stroke="none"/>
    </g>
    <g stroke-linecap="butt" transform="matrix(2,0,0,2,-2842,-1206)" text-rendering="geometricPrecision" font-family="sans-serif" shape-rendering="geometricPrecision" font-weight="bold" stroke-miterlimit="1.45">
      <text x="2105.8162" xml:space="preserve" y="835.3633" clip-path="url(#clipPath2)" stroke="none">Organism</text>
    </g>
    <g stroke-linecap="butt" transform="matrix(2,0,0,2,-2842,-1206)" fill="rgb(243,101,35)" text-rendering="geometricPrecision" shape-rendering="geometricPrecision" stroke="rgb(243,101,35)" stroke-miterlimit="1.45">
      <rect x="2068.824" y="808" clip-path="url(#clipPath2)" fill="none" width="130" rx="4" ry="4" height="32"/>
      <rect stroke-linecap="square" x="2068.824" y="808" clip-path="url(#clipPath2)" width="130" rx="4" ry="4" height="15" stroke="none" stroke-miterlimit="10"/>
    </g>
    <g stroke-linecap="butt" transform="matrix(2,0,0,2,-2842,-1206)" fill="white" text-rendering="geometricPrecision" font-family="sans-serif" shape-rendering="geometricPrecision" stroke="white" font-weight="bold" stroke-miterlimit="1.45">
      <text x="2115.1531" xml:space="preserve" y="820.2139" clip-path="url(#clipPath2)" stroke="none">Object</text>
    </g>
    <g stroke-linecap="butt" transform="matrix(2,0,0,2,-2842,-1206)" fill="rgb(243,101,35)" text-rendering="geometricPrecision" shape-rendering="geometricPrecision" stroke="rgb(243,101,35)" stroke-miterlimit="1.45">
      <rect x="2068.824" y="808" clip-path="url(#clipPath2)" fill="none" width="130" rx="4" ry="4" height="15"/>
    </g>
  </g>
</svg>
